<svg viewBox="0 0 64 64" xmlns="http://www.w3.org/2000/svg"><path d="M51 7v22H3V7c0-2.21 1.79-4 4-4h40c2.21 0 4 1.79 4 4z" fill="#edfcfc"/><path d="M9 7h36v22H9z" fill="#d5dbdb"/><path d="M9 7h36v8H9z" fill="#fda22e"/><path d="M26.63 48l.41-.38c-.37-.96-.64-1.96-.81-3l-3.13-.73c-.07-.62-.1-1.25-.1-1.89s.03-1.27.1-1.89l3.13-.73c.13-.82.33-1.61.59-2.38.07-.21.14-.42.22-.62l-2.34-2.19a18.3 18.3 0 011.89-3.27l3.05.92c.66-.8 1.4-1.54 2.2-2.2l-.19-.64-.73-2.41c1.02-.74 2.11-1.37 3.27-1.9l2.19 2.35c.96-.37 1.96-.64 3-.81l.73-3.13c.62-.07 1.25-.1 1.89-.1s1.27.03 1.89.1l.73 3.13c1.04.17 2.04.44 3 .81l2.19-2.34c.41.18.8.38 1.19.59.72.38 1.42.82 2.08 1.3l-.92 3.05c.8.66 1.54 1.4 2.2 2.2l3.05-.92c.74 1.02 1.37 2.11 1.9 3.27l-2.35 2.19c.37.96.64 1.96.81 3l3.13.73c.07.62.1 1.25.1 1.89s-.03 1.27-.1 1.89l-3.13.73c-.17 1.04-.44 2.04-.81 3l2.34 2.19a18.3 18.3 0 01-1.89 3.27l-3.05-.92c-.66.8-1.4 1.54-2.2 2.2l.92 3.05c-1.02.74-2.11 1.37-3.27 1.9l-2.19-2.35c-.96.37-1.96.64-3 .81l-.73 3.13c-.62.07-1.25.1-1.89.1s-1.27-.03-1.89-.1l-.73-3.13c-1.04-.17-2.04-.44-3-.81l-2.19 2.34a18.3 18.3 0 01-3.27-1.89l.92-3.05c-.8-.66-1.54-1.4-2.2-2.2l-3.05.92c-.25-.35-.5-.71-.72-1.08-.44-.7-.83-1.43-1.18-2.19zM48 42c0-3.31-2.69-6-6-6s-6 2.69-6 6 2.69 6 6 6 6-2.69 6-6z" fill="#f82f45"/><path d="M42 34a8 8 0 100 16 8 8 0 000-16zm0 14a6 6 0 110-12 6 6 0 010 12z" fill="#d22435"/><path d="M26.63 48l-1.94 1.81c.35.76.74 1.49 1.18 2.19H13c-2.21 0-4-1.79-4-4z" fill="#4bbee5"/><path d="M26.23 44.62c.17 1.04.44 2.04.81 3l-.41.38H15l4-11h7.82c-.26.77-.46 1.56-.59 2.38l-3.13.73c-.07.62-.1 1.25-.1 1.89s.03 1.27.1 1.89z" fill="#3c7eb0"/><path d="M3 29h28.65l.19.64c-.8.66-1.54 1.4-2.2 2.2l-3.05-.92a18.3 18.3 0 00-1.89 3.27l2.34 2.19c-.08.2-.15.41-.22.62H7c-2.21 0-4-1.79-4-4z" fill="#4bbee5"/><g fill="#171526"><path d="M61.132 39.137l-2.501-.584a16.948 16.948 0 00-.506-1.891l1.863-1.747c.312-.292.404-.751.228-1.142a20.053 20.053 0 00-1.993-3.441.999.999 0 00-1.103-.372l-2.424.736c-.437-.49-.902-.956-1.394-1.393l.738-2.423a1 1 0 00-.372-1.102A19.957 19.957 0 0052 24.697V7c0-2.757-2.243-5-5-5H7C4.243 2 2 4.243 2 7v26c0 2.757 2.243 5 5 5h10.573L14.3 47H9a1 1 0 00-1 1c0 2.757 2.243 5 5 5h12.345c.146.221.277.452.432.667a.998.998 0 001.103.372l2.424-.736c.437.49.902.956 1.394 1.393l-.738 2.423a1 1 0 00.372 1.102c1.08.779 2.238 1.45 3.442 1.994a.997.997 0 001.142-.228l1.746-1.864c.618.205 1.251.374 1.892.506l.584 2.502a1 1 0 00.876.768c.674.067 1.343.101 1.986.101s1.312-.034 1.987-.1a1 1 0 00.876-.768l.584-2.502a16.792 16.792 0 001.892-.506l1.746 1.864a1 1 0 001.142.228 19.994 19.994 0 003.44-1.994 1 1 0 00.373-1.103l-.737-2.424c.491-.437.957-.903 1.394-1.393l2.424.737c.407.125.853-.025 1.103-.372a20.042 20.042 0 001.993-3.441.999.999 0 00-.228-1.142l-1.863-1.747c.205-.62.374-1.252.506-1.892l2.501-.584a1 1 0 00.768-.875c.065-.672.099-1.341.099-1.986s-.034-1.314-.101-1.988a.998.998 0 00-.767-.875zM7 4h40c1.654 0 3 1.346 3 3v16.721a.993.993 0 00-.915.29l-1.746 1.864a16.736 16.736 0 00-1.892-.506l-.584-2.502a1 1 0 00-.876-.768 19.85 19.85 0 00-3.975 0 1 1 0 00-.876.768l-.584 2.502c-.641.132-1.273.301-1.892.506l-1.746-1.864a1.002 1.002 0 00-1.142-.228 19.994 19.994 0 00-3.44 1.994 1 1 0 00-.373 1.103l.342 1.12H10V16h10v-2H10V8h34v12h2V7a1 1 0 00-1-1H9a1 1 0 00-1 1v21H4V7c0-1.654 1.346-3 3-3zm23 26c-.232.232-.479.451-.697.696L27.012 30zM4 33v-3h22.209a.986.986 0 00-.432.332 20.042 20.042 0 00-1.993 3.441.999.999 0 00.228 1.142L25.17 36H7c-1.654 0-3-1.346-3-3zm15.7 5h5.8c-.045.184-.093.367-.131.553l-2.501.584a1 1 0 00-.768.875c-.066.674-.1 1.343-.1 1.988s.034 1.313.101 1.988a1 1 0 00.768.875l2.501.584c.108.525.258 1.04.415 1.553h-9.357zM13 51a3.006 3.006 0 01-2.829-2h13.931l-.091.085a1.001 1.001 0 00-.228 1.142c.119.263.267.515.398.773zm46.966-7.918l-2.427.567a1 1 0 00-.759.811 14.934 14.934 0 01-.752 2.811 1 1 0 00.253 1.081l1.806 1.693a17.974 17.974 0 01-1.083 1.87l-2.351-.715a.996.996 0 00-1.063.321 15.095 15.095 0 01-2.069 2.069 1 1 0 00-.321 1.063l.715 2.351a18.3 18.3 0 01-1.87 1.084l-1.692-1.807a.999.999 0 00-1.081-.252c-.905.34-1.851.593-2.812.752a1 1 0 00-.811.759l-.566 2.427a17.36 17.36 0 01-2.164 0l-.566-2.427a.998.998 0 00-.811-.759 15.05 15.05 0 01-2.812-.752 1 1 0 00-1.081.252l-1.692 1.807a17.894 17.894 0 01-1.871-1.084l.716-2.35a1.003 1.003 0 00-.321-1.063 15.095 15.095 0 01-2.069-2.069 1 1 0 00-1.063-.321l-2.351.714a18.088 18.088 0 01-1.084-1.87l1.807-1.693a1 1 0 00.253-1.081 14.964 14.964 0 01-.752-2.812.998.998 0 00-.759-.811l-2.427-.567a16.559 16.559 0 01-.002-2.163l2.427-.567a1 1 0 00.759-.811c.158-.958.411-1.904.752-2.811a1 1 0 00-.252-1.082l-1.807-1.693c.321-.642.685-1.267 1.083-1.87l2.351.714c.387.117.807-.01 1.063-.321a15.151 15.151 0 012.069-2.069 1 1 0 00.321-1.063l-.715-2.351a18.3 18.3 0 011.87-1.084l1.692 1.807a1 1 0 001.081.252c.905-.34 1.851-.593 2.812-.752a1 1 0 00.811-.759l.566-2.427a17.36 17.36 0 012.164 0l.566 2.427a.998.998 0 00.811.759 15.05 15.05 0 012.812.752c.375.142.805.042 1.081-.252l1.692-1.807c.643.322 1.269.685 1.871 1.084l-.716 2.35c-.117.387.01.806.321 1.063.754.62 1.45 1.316 2.069 2.069a.997.997 0 001.063.321l2.351-.714c.399.603.762 1.228 1.084 1.87l-1.807 1.693a1 1 0 00-.253 1.081c.341.909.594 1.855.752 2.812a.998.998 0 00.759.811l2.427.567a16.666 16.666 0 01.002 2.165z"/><path d="M49 42c0-3.86-3.141-7-7-7s-7 3.14-7 7 3.141 7 7 7 7-3.14 7-7zm-7 5c-2.757 0-5-2.243-5-5s2.243-5 5-5 5 2.243 5 5-2.243 5-5 5zm-8.105-10.858l-1.619-1.173c-.421.58-.791 1.202-1.101 1.848l1.803.865a10.01 10.01 0 01.917-1.54zm7.626-4.13l-.094-1.998c-.717.034-1.434.132-2.131.292l.449 1.949a10.118 10.118 0 011.776-.243zm7.93.581l-1.244 1.566c.468.371.906.787 1.302 1.236l1.5-1.322a12.246 12.246 0 00-1.558-1.48zM32.364 44.681l-1.928.532c.189.688.445 1.365.759 2.013l1.801-.871a9.912 9.912 0 01-.632-1.674zm4.874-11.477l-.955-1.758c-.628.341-1.229.742-1.789 1.19l1.252 1.56c.466-.374.968-.708 1.492-.992zm14.603 10.582l1.969.355c.126-.7.19-1.42.19-2.141v-.043L52 42c0 .602-.054 1.203-.159 1.786zm-9.382 8.204l.09 1.998a12.107 12.107 0 002.132-.288l-.445-1.95c-.581.132-1.178.213-1.777.24zm7.635-4.115l1.617 1.177c.421-.579.793-1.2 1.104-1.846l-1.801-.868a10.16 10.16 0 01-.92 1.537zm1.537-8.574l1.928-.535a11.756 11.756 0 00-.765-2.013l-1.797.876c.262.538.476 1.1.634 1.672zm-4.886 11.504l.949 1.76a11.948 11.948 0 001.793-1.187l-1.248-1.562c-.468.373-.97.706-1.494.989zm-9.45 2.238c.66.282 1.35.504 2.049.662l.439-1.951a9.836 9.836 0 01-1.703-.551zm-2.816-4.453l-1.504 1.318c.473.539.996 1.038 1.557 1.484l1.244-1.565a9.913 9.913 0 01-1.297-1.237zm12.204-17.642a11.86 11.86 0 00-2.05-.658l-.438 1.951a9.842 9.842 0 011.704.548zm-14.528 9.286l-1.969-.351A12.066 12.066 0 0030 42v.022L32 42c0-.593.053-1.188.155-1.766zm5.552-28.941l-1.414 1.414L38.586 15H26c-2.757 0-5 2.243-5 5v6h2v-6c0-1.654 1.346-3 3-3h12.586l-2.293 2.293 1.414 1.414 4-4a.999.999 0 000-1.414zM12 10h2v2h-2zm4 0h2v2h-2zm4 0h2v2h-2z"/></g></svg>