<svg viewBox="0 0 256 256" xmlns="http://www.w3.org/2000/svg"><path d="M251.333 42.886v197.25a5 5 0 01-5 5H9.667a5 5 0 01-5-5V42.886z" fill="#efefef"/><path d="M251.333 15.865v27.021H4.667V15.865a5 5 0 015-5h236.667a4.999 4.999 0 014.999 5z" fill="#afafaf"/><circle cx="178.576" cy="26.875" fill="#fc5d3d" r="6.132"/><circle cx="202.222" cy="26.875" fill="#f0c020" r="6.132"/><circle cx="225.868" cy="26.875" fill="#13bf6d" r="6.132"/><path d="M239 235.167H39.369a2.5 2.5 0 110-5H236.5V57.298a2.5 2.5 0 115 0v175.369a2.5 2.5 0 01-2.5 2.5zm-209.631 0H17.624a2.5 2.5 0 110-5h11.745a2.5 2.5 0 110 5z" fill="#fff"/><path d="M26.5 90.805v116.411h71.074V90.805c0-5.523-4.477-10-10-10H36.5c-5.523 0-10 4.477-10 10z" fill="#fc5d3d"/><path d="M26.5 90.805v116.411h71.074V90.805c0-5.523-4.477-10-10-10H36.5c-5.523 0-10 4.477-10 10z" fill="#fc5d3d"/><path d="M50.059 177.41h23.955v29.806H50.059z" fill="#afafaf"/><path d="M158.426 90.805v116.411H229.5V90.805c0-5.523-4.477-10-10-10h-51.074c-5.522 0-10 4.477-10 10z" fill="#fc5d3d"/><path d="M158.426 90.805v116.411H229.5V90.805c0-5.523-4.477-10-10-10h-51.074c-5.522 0-10 4.477-10 10z" fill="#72c1e8"/><path d="M181.986 177.41h23.955v29.806h-23.955z" fill="#afafaf"/><path d="M187.21 26.88c-.01-4.76-3.88-8.64-8.641-8.64-4.75 0-8.63 3.88-8.63 8.64 0 4.75 3.88 8.63 8.63 8.63 4.761 0 8.631-3.88 8.641-8.63zm-12.271 0c.011-2 1.641-3.63 3.63-3.64 2 .01 3.631 1.64 3.641 3.64-.01 1.99-1.641 3.62-3.641 3.63a3.664 3.664 0 01-3.63-3.63zm35.911 0c0-4.76-3.87-8.64-8.63-8.64s-8.63 3.88-8.63 8.64c0 4.75 3.87 8.63 8.63 8.63s8.63-3.88 8.63-8.63zm-12.26 0c0-2 1.63-3.63 3.63-3.64 2 .01 3.63 1.64 3.63 3.64 0 1.99-1.63 3.62-3.63 3.63-2-.01-3.63-1.64-3.63-3.63zm35.91 0c0-4.76-3.87-8.64-8.63-8.64-4.761 0-8.63 3.88-8.641 8.64.011 4.75 3.88 8.63 8.641 8.63 4.76 0 8.63-3.88 8.63-8.63zm-12.26 0c0-2 1.63-3.63 3.63-3.64 1.989.01 3.62 1.64 3.63 3.64a3.663 3.663 0 01-3.63 3.63c-2-.01-3.63-1.64-3.63-3.63zm-66.695-.005a2.5 2.5 0 00-2.5-2.5H17.624a2.5 2.5 0 100 5h135.421a2.5 2.5 0 002.5-2.5zM228.13 242.64c-1.37 0-2.49 1.12-2.49 2.5s1.12 2.5 2.49 2.5c1.38 0 2.51-1.12 2.51-2.5s-1.13-2.5-2.51-2.5z"/><path d="M246.33 8.359H9.67c-4.14.011-7.5 3.37-7.5 7.5v224.28c0 4.13 3.36 7.49 7.5 7.5h208.46c1.38 0 2.51-1.12 2.51-2.5s-1.13-2.5-2.51-2.5H9.67a2.514 2.514 0 01-2.5-2.5V45.38h34.16c1.38 0 2.5-1.12 2.5-2.49a2.5 2.5 0 00-2.5-2.5H7.17V15.86c0-1.369 1.12-2.489 2.5-2.5h236.66c1.38.011 2.5 1.131 2.5 2.5v24.53H61.33a2.5 2.5 0 00-2.5 2.5c0 1.37 1.12 2.49 2.5 2.49h187.5v194.76c0 1.37-1.12 2.49-2.5 2.5h-8.19a2.5 2.5 0 000 5h8.19c4.14-.01 7.5-3.37 7.5-7.5V15.859c0-4.13-3.36-7.489-7.5-7.5z"/><path d="M51.33 45.38c1.38 0 2.5-1.12 2.5-2.49a2.5 2.5 0 00-5 0c0 1.37 1.12 2.49 2.5 2.49zm-8.977 56.195a2.5 2.5 0 002.5-2.5v-2.094a2.5 2.5 0 10-5 0v2.094a2.5 2.5 0 002.5 2.5zm19.684 0a2.5 2.5 0 002.5-2.5v-2.094a2.5 2.5 0 10-5 0v2.094a2.5 2.5 0 002.5 2.5zm19.684 0a2.5 2.5 0 002.5-2.5v-2.094a2.5 2.5 0 10-5 0v2.094a2.5 2.5 0 002.5 2.5zm-39.368 15.656a2.5 2.5 0 002.5-2.5v-2.094a2.5 2.5 0 10-5 0v2.094a2.5 2.5 0 002.5 2.5zm19.684 0a2.5 2.5 0 002.5-2.5v-2.094a2.5 2.5 0 10-5 0v2.094a2.5 2.5 0 002.5 2.5zm19.684 0a2.5 2.5 0 002.5-2.5v-2.094a2.5 2.5 0 10-5 0v2.094a2.5 2.5 0 002.5 2.5zm-39.368 15.657a2.5 2.5 0 002.5-2.5v-2.094a2.5 2.5 0 10-5 0v2.094a2.5 2.5 0 002.5 2.5zm19.684 0a2.5 2.5 0 002.5-2.5v-2.094a2.5 2.5 0 10-5 0v2.094a2.5 2.5 0 002.5 2.5zm19.684 0a2.5 2.5 0 002.5-2.5v-2.094a2.5 2.5 0 10-5 0v2.094a2.5 2.5 0 002.5 2.5zm-39.368 15.657a2.5 2.5 0 002.5-2.5v-2.095a2.5 2.5 0 10-5 0v2.095a2.5 2.5 0 002.5 2.5zm19.684 0a2.5 2.5 0 002.5-2.5v-2.095a2.5 2.5 0 10-5 0v2.095a2.5 2.5 0 002.5 2.5zm19.684 0a2.5 2.5 0 002.5-2.5v-2.095a2.5 2.5 0 10-5 0v2.095a2.5 2.5 0 002.5 2.5zm-39.368 15.656a2.5 2.5 0 002.5-2.5v-2.095a2.5 2.5 0 10-5 0v2.095a2.5 2.5 0 002.5 2.5zm19.684 0a2.5 2.5 0 002.5-2.5v-2.095a2.5 2.5 0 10-5 0v2.095a2.5 2.5 0 002.5 2.5zm19.684 0a2.5 2.5 0 002.5-2.5v-2.095a2.5 2.5 0 10-5 0v2.095a2.5 2.5 0 002.5 2.5z"/><path d="M24 90.805v116.411a2.5 2.5 0 002.5 2.5h71.073a2.5 2.5 0 002.5-2.5V90.805c0-6.893-5.607-12.5-12.5-12.5H36.5c-6.893 0-12.5 5.607-12.5 12.5zm47.515 113.911H52.559V179.91h18.956zM95.073 90.805v113.911H76.515V177.41a2.5 2.5 0 00-2.5-2.5H50.059a2.5 2.5 0 00-2.5 2.5v27.306H29V90.805c0-4.136 3.364-7.5 7.5-7.5h51.073c4.136 0 7.5 3.364 7.5 7.5zm79.206 3.676a2.5 2.5 0 00-2.5 2.5v2.094a2.5 2.5 0 105 0v-2.094a2.5 2.5 0 00-2.5-2.5zm19.684 0a2.5 2.5 0 00-2.5 2.5v2.094a2.5 2.5 0 105 0v-2.094a2.5 2.5 0 00-2.5-2.5zm19.684 0a2.5 2.5 0 00-2.5 2.5v2.094a2.5 2.5 0 105 0v-2.094a2.5 2.5 0 00-2.5-2.5zm-39.368 15.657a2.5 2.5 0 00-2.5 2.5v2.094a2.5 2.5 0 105 0v-2.094a2.5 2.5 0 00-2.5-2.5zm19.684 0a2.5 2.5 0 00-2.5 2.5v2.094a2.5 2.5 0 105 0v-2.094a2.5 2.5 0 00-2.5-2.5zm19.684 0a2.5 2.5 0 00-2.5 2.5v2.094a2.5 2.5 0 105 0v-2.094a2.5 2.5 0 00-2.5-2.5zm-39.368 15.656a2.5 2.5 0 00-2.5 2.5v2.094a2.5 2.5 0 105 0v-2.094a2.5 2.5 0 00-2.5-2.5zm19.684 0a2.5 2.5 0 00-2.5 2.5v2.094a2.5 2.5 0 105 0v-2.094a2.5 2.5 0 00-2.5-2.5zm19.684 0a2.5 2.5 0 00-2.5 2.5v2.094a2.5 2.5 0 105 0v-2.094a2.5 2.5 0 00-2.5-2.5zm-39.368 15.656a2.5 2.5 0 00-2.5 2.5v2.095a2.5 2.5 0 105 0v-2.095a2.5 2.5 0 00-2.5-2.5zm19.684 0a2.5 2.5 0 00-2.5 2.5v2.095a2.5 2.5 0 105 0v-2.095a2.5 2.5 0 00-2.5-2.5zm19.684 0a2.5 2.5 0 00-2.5 2.5v2.095a2.5 2.5 0 105 0v-2.095a2.5 2.5 0 00-2.5-2.5zm-39.368 15.656a2.5 2.5 0 00-2.5 2.5v2.095a2.5 2.5 0 105 0v-2.095a2.5 2.5 0 00-2.5-2.5zm19.684 0a2.5 2.5 0 00-2.5 2.5v2.095a2.5 2.5 0 105 0v-2.095a2.5 2.5 0 00-2.5-2.5zm19.684 0a2.5 2.5 0 00-2.5 2.5v2.095a2.5 2.5 0 105 0v-2.095a2.5 2.5 0 00-2.5-2.5z"/><path d="M219.5 78.305h-51.073c-6.893 0-12.5 5.607-12.5 12.5v116.411a2.5 2.5 0 002.5 2.5H229.5a2.5 2.5 0 002.5-2.5V90.805c0-6.893-5.607-12.5-12.5-12.5zm-16.059 126.411h-18.956V179.91h18.956zm23.559 0h-18.559V177.41a2.5 2.5 0 00-2.5-2.5h-23.956a2.5 2.5 0 00-2.5 2.5v27.306h-18.559V90.805c0-4.136 3.364-7.5 7.5-7.5H219.5c4.136 0 7.5 3.364 7.5 7.5zM112.667 121a2.5 2.5 0 002.5 2.5h19.631l-4.925 4.925a2.498 2.498 0 000 3.535 2.498 2.498 0 003.535 0l9.19-9.19a2.502 2.502 0 000-3.54l-9.19-9.19a2.499 2.499 0 10-3.535 3.535l4.925 4.925h-19.631a2.5 2.5 0 00-2.5 2.5zm30.666 44.5a2.5 2.5 0 00-2.5-2.5h-19.631l4.925-4.925a2.499 2.499 0 10-3.535-3.535l-9.19 9.19a2.51 2.51 0 000 3.54l9.19 9.19a2.498 2.498 0 003.535 0 2.498 2.498 0 000-3.535L121.202 168h19.631a2.5 2.5 0 002.5-2.5z"/></svg>