<svg viewBox="0 0 124 124" xmlns="http://www.w3.org/2000/svg"><path d="M0 114.09A2.902 2.902 0 002.894 117h101.322a2.902 2.902 0 002.894-2.91V43.408H0z" fill="#e6e6e6"/><path d="M104.216 23.974H2.894A2.902 2.902 0 000 26.884v16.525h107.111V26.884a2.903 2.903 0 00-2.895-2.91z" fill="#cdcdcd"/><path d="M16.889 97.116a2.902 2.902 0 002.894 2.91h101.322a2.902 2.902 0 002.894-2.91V26.435H16.889z" fill="#5ab8ec"/><path d="M121.106 7H19.784a2.902 2.902 0 00-2.894 2.91v16.525H124V9.91A2.902 2.902 0 00121.106 7z" fill="#30ade0"/><path d="M36.556 18.303h-7.733a2 2 0 010-4h7.733a2 2 0 010 4zm17.61 0h-7.734a2 2 0 010-4h7.734a2 2 0 010 4zM38.463 63.477l19.736 10.22V69.72l-15.192-7.657 15.192-7.656V50.43L38.463 60.65zm24.111 11.506h3.816l11.684-30.416h-3.858zm19.789-24.552v3.977l15.307 7.655-15.307 7.656v3.976l19.736-10.178v-2.908z" fill="#fff"/></svg>