<svg viewBox="0 -19 512 512" xmlns="http://www.w3.org/2000/svg"><path d="M435.188 396.906H28.973c-11.86 0-21.477-9.613-21.477-21.476V28.973c0-11.86 9.617-21.477 21.477-21.477h406.214c11.86 0 21.473 9.617 21.473 21.477V375.43c0 11.86-9.613 21.476-21.472 21.476zm0 0" fill="#efe2dd"/><path d="M456.664 28.973V375.43c0 11.863-9.613 21.476-21.476 21.476h-26.231c11.863 0 21.477-9.613 21.477-21.476V28.973c0-11.86-9.614-21.473-21.477-21.473h26.23c11.864 0 21.477 9.613 21.477 21.473zm0 0" fill="#e1d3ce"/><path d="M456.66 345.168H7.496v30.262c0 11.86 9.617 21.476 21.477 21.476h406.214c11.86 0 21.473-9.617 21.473-21.476zm0 0" fill="#83afe4"/><path d="M456.664 345.168v30.262c0 11.863-9.613 21.476-21.476 21.476h-26.231c11.863 0 21.477-9.613 21.477-21.476v-30.262zm0 0" fill="#5290d9"/><path d="M457.14 80.754H7.966V28.969c0-11.86 9.613-21.473 21.473-21.473h406.23c11.86 0 21.473 9.613 21.473 21.473zm0 0" fill="#83afe4"/><path d="M457.145 28.965v51.789h-26.711v-51.79c0-11.85-9.614-21.464-21.477-21.464h26.711c11.863 0 21.477 9.613 21.477 21.465zm0 0" fill="#5290d9"/><path d="M59.96 43.945c0 6.746-5.468 12.215-12.214 12.215s-12.215-5.469-12.215-12.215C35.531 37.2 41 31.73 47.746 31.73s12.215 5.47 12.215 12.215zm0 0" fill="#ff5757"/><path d="M107.133 43.945c0 6.746-5.469 12.215-12.215 12.215-6.742 0-12.211-5.469-12.211-12.215 0-6.746 5.469-12.215 12.211-12.215 6.746 0 12.215 5.47 12.215 12.215zm0 0" fill="#ffc143"/><path d="M154.309 43.945c0 6.746-5.47 12.215-12.215 12.215s-12.215-5.469-12.215-12.215c0-6.746 5.469-12.215 12.215-12.215s12.215 5.47 12.215 12.215zm0 0" fill="#5ee2c5"/><path d="M59.957 43.95c0 6.741-5.465 12.206-12.207 12.206a12.132 12.132 0 01-8.426-3.375c6.61-.144 11.93-5.547 11.93-12.199 0-3.484-1.457-6.617-3.79-8.84.095-.008.192-.008.286-.008 6.742 0 12.207 5.465 12.207 12.215zm0 0" fill="#ff4343"/><path d="M107.133 43.95c0 6.741-5.465 12.206-12.215 12.206-3.266 0-6.23-1.277-8.426-3.375 6.613-.144 11.938-5.547 11.938-12.199 0-3.484-1.457-6.617-3.79-8.84.094-.008.184-.008.278-.008 6.75 0 12.215 5.465 12.215 12.215zm0 0" fill="#ffb509"/><path d="M154.309 43.95c0 6.741-5.473 12.206-12.215 12.206-3.266 0-6.23-1.277-8.426-3.375 6.617-.144 11.926-5.547 11.926-12.199 0-3.484-1.453-6.617-3.785-8.84.09-.008.191-.008.285-.008 6.742 0 12.215 5.465 12.215 12.215zm0 0" fill="#00d3b4"/><path d="M173.574 396.906h117.012v35.274H173.574zm0 0" fill="#003c79"/><path d="M328.504 466.773H135.656a4.206 4.206 0 01-4.207-4.207v-13.64c0-9.25 7.496-16.75 16.746-16.75h167.77c9.25 0 16.746 7.5 16.746 16.75v13.64a4.204 4.204 0 01-4.207 4.207zm0 0" fill="#83afe4"/><path d="M332.71 448.922v13.644a4.207 4.207 0 01-4.206 4.211h-14.86v-17.855c0-9.242-7.5-16.742-16.742-16.742h19.067c9.246 0 16.742 7.496 16.742 16.742zm0 0" fill="#5290d9"/><path d="M67.457 43.945c0-10.867-8.844-19.71-19.71-19.71-10.872 0-19.712 8.843-19.712 19.71 0 10.871 8.84 19.715 19.711 19.715 10.867 0 19.711-8.844 19.711-19.715zm-19.71 4.72a4.725 4.725 0 01-4.72-4.72 4.725 4.725 0 014.72-4.718 4.725 4.725 0 014.718 4.718 4.725 4.725 0 01-4.719 4.72zm47.171 14.991c10.871 0 19.715-8.843 19.715-19.71 0-10.868-8.844-19.712-19.715-19.712-10.867 0-19.711 8.844-19.711 19.711 0 10.868 8.844 19.711 19.711 19.711zm0-24.426a4.719 4.719 0 014.719 4.715 4.722 4.722 0 01-4.719 4.72 4.721 4.721 0 01-4.715-4.72 4.72 4.72 0 014.715-4.715zm47.176 24.426c10.867 0 19.71-8.843 19.71-19.71 0-10.868-8.843-19.712-19.71-19.712-10.871 0-19.711 8.844-19.711 19.711 0 10.868 8.84 19.711 19.71 19.711zm0-24.426a4.721 4.721 0 014.719 4.715c0 2.602-2.118 4.72-4.72 4.72s-4.718-2.118-4.718-4.72a4.721 4.721 0 014.719-4.715zM48.18 125.453a7.495 7.495 0 007.496 7.496h17.453c4.14 0 7.496-3.355 7.496-7.496s-3.355-7.5-7.496-7.5H55.676a7.501 7.501 0 00-7.496 7.5zm153.566-7.5H95.29a7.499 7.499 0 000 14.996h106.457c4.14 0 7.496-3.355 7.496-7.496s-3.355-7.5-7.496-7.5zm-7.609 36.988h-43.121c-4.141 0-7.496 3.356-7.496 7.496s3.355 7.497 7.496 7.497h43.12a7.496 7.496 0 100-14.992zm-64.16 0h-14.825a7.497 7.497 0 000 14.993h14.825a7.497 7.497 0 000-14.993zm-37.985 0H55.676c-4.14 0-7.496 3.356-7.496 7.496s3.355 7.497 7.496 7.497h36.316c4.14 0 7.496-3.356 7.496-7.496s-3.355-7.497-7.496-7.497zm0 0"/><path d="M213.598 340.426l76.257-94.059a5.004 5.004 0 017.434-.37l31.2 31.468 116.62-148.3-15.882-13.032c-3-2.461-2.172-7.254 1.476-8.567l67.106-24.14c3.468-1.246 7.05 1.562 6.664 5.226l-7.422 70.352c-.414 3.953-5.059 5.863-8.133 3.344l-17.055-13.953-130.16 170.277a5 5 0 01-7.258.73l-31.68-27.648a4.995 4.995 0 00-7.238.71l-37.058 47.962zm0 0" fill="#ff4343"/><path d="M504.473 88.652L497.055 159c-.418 3.953-5.059 5.86-8.137 3.344l-17.055-13.953-130.21 170.343a5 5 0 01-7.2.782l-7.71-6.52 139.472-179.273a3.852 3.852 0 015.441-.649l12.254 9.766a.925.925 0 001.496-.637l5.242-56.2 7.164-2.577c3.47-1.246 7.047 1.562 6.66 5.226zm0 0" fill="#f72c2c"/><path d="M507.219 78.297a12.433 12.433 0 00-11.946-1.926L464.16 87.563v-58.59c0-15.977-13-28.973-28.973-28.973H98.966a7.495 7.495 0 00-7.496 7.496c0 4.145 3.355 7.5 7.496 7.5h336.222c7.708 0 13.977 6.27 13.977 13.977v44.285H14.996V28.973c0-7.707 6.27-13.977 13.977-13.977h35.43a7.496 7.496 0 007.495-7.5A7.495 7.495 0 0064.402 0h-35.43C12.997 0 0 12.996 0 28.973V375.43c0 15.976 12.996 28.972 28.973 28.972h137.105v20.278h-17.883c-13.367 0-24.246 10.875-24.246 24.246v13.64c0 6.454 5.254 11.704 11.707 11.704h192.848c6.453 0 11.707-5.25 11.707-11.704v-13.64c0-13.371-10.879-24.246-24.246-24.246h-17.883v-20.278h137.102c15.976 0 28.972-12.996 28.972-28.972V170.824l8.957-11.719 11.059 9.047a12.48 12.48 0 0012.664 1.883 12.495 12.495 0 007.676-10.246l7.418-70.351a12.433 12.433 0 00-4.711-11.141zM325.215 448.926v10.351h-186.27v-10.351c0-5.102 4.149-9.25 9.25-9.25h167.77c5.101 0 9.25 4.148 9.25 9.25zM283.09 424.68H181.07v-20.278h102.02zm166.074-49.25c0 7.707-6.27 13.976-13.977 13.976H28.973c-7.707 0-13.977-6.27-13.977-13.976v-22.762h434.168zm0-37.758H270.07l29.766-38.524 29.684 25.903a12.536 12.536 0 009.464 3.02 12.521 12.521 0 008.676-4.848l101.504-132.786zm40.918-184.059l-13.469-11.02a7.492 7.492 0 00-5.617-1.644 7.485 7.485 0 00-5.09 2.895L337.367 312l-29.672-25.895a12.517 12.517 0 00-9.433-3.02 12.52 12.52 0 00-8.668 4.798l-34.809 45.047h-25.457l64.598-79.676 25.258 25.473a12.523 12.523 0 009.59 3.68 12.505 12.505 0 009.105-4.755l27.066-34.418a7.495 7.495 0 00-1.261-10.527c-3.25-2.559-7.965-1.996-10.528 1.258l-25.316 32.2-25.227-25.446a12.563 12.563 0 00-9.496-3.684 12.52 12.52 0 00-9.082 4.613s-77.125 95.325-77.398 96.024H14.997V88.25h434.167v4.707l-21 7.555a12.522 12.522 0 00-8.082 9.633 12.514 12.514 0 004.387 11.78l10.207 8.376-60.426 76.844a7.494 7.494 0 001.262 10.523 7.491 7.491 0 0010.527-1.258l64.965-82.613a7.497 7.497 0 00-1.14-10.43l-12.477-10.238 59.215-21.3zm0 0"/></svg>