<svg viewBox="0 0 512 512" xmlns="http://www.w3.org/2000/svg"><path d="M478.328 473.556H33.672c-14.454 0-26.172-11.717-26.172-26.172V171.678h497v275.707c0 14.454-11.718 26.171-26.172 26.171z" fill="#f3eae6"/><path d="M472.785 79.543H39.214C21.699 79.543 7.5 93.742 7.5 111.257v60.42h497v-60.42c0-17.515-14.199-31.714-31.715-31.714z" fill="#62dbfb"/><path d="M474.5 171.678v245.707c0 14.454-11.718 26.172-26.172 26.172H7.5v3.828c0 14.454 11.718 26.172 26.172 26.172h444.656c14.454 0 26.172-11.718 26.172-26.172V171.678z" fill="#efe2dd"/><path d="M472.785 79.543h-30c17.516 0 31.715 14.199 31.715 31.715v60.42h30v-60.42c0-17.516-14.199-31.715-31.715-31.715z" fill="#01d0fb"/><path d="M85.531 118.983c-12.09 0-21.891-9.801-21.891-21.891V60.334c0-12.09 9.801-21.891 21.891-21.891 12.09 0 21.891 9.801 21.891 21.891v36.759c-.001 12.089-9.801 21.89-21.891 21.89zm87.716 0c-12.09 0-21.891-9.801-21.891-21.891V60.334c0-12.09 9.801-21.891 21.891-21.891 12.09 0 21.891 9.801 21.891 21.891v36.759c0 12.089-9.801 21.89-21.891 21.89zm158.041 0c-12.09 0-21.891-9.801-21.891-21.891V60.334c0-12.09 9.801-21.891 21.891-21.891 12.09 0 21.891 9.801 21.891 21.891v36.759c-.001 12.089-9.801 21.89-21.891 21.89zm87.716 0c-12.09 0-21.891-9.801-21.891-21.891V60.334c0-12.09 9.801-21.891 21.891-21.891 12.09 0 21.891 9.801 21.891 21.891v36.759c0 12.089-9.801 21.89-21.891 21.89z" fill="#e1d3ce"/><ellipse cx="256" cy="238.999" fill="#5de1c4" rx="102.076" ry="102.077" transform="rotate(-45 255.975 239.063)"/><path d="M314.642 155.444c10.393 15.988 16.435 35.064 16.435 55.555 0 56.376-45.701 102.077-102.076 102.077-21.826 0-42.049-6.855-58.642-18.522 18.201 28 49.757 46.522 85.642 46.522 56.375 0 102.076-45.701 102.076-102.077-.001-34.55-17.168-65.086-43.435-83.555z" fill="#0ed2b3"/><path d="M472.786 72.043h-24.391V60.334c0-16.206-13.185-29.391-29.391-29.391s-29.391 13.185-29.391 29.391v11.709h-28.936V60.334c0-16.206-13.185-29.391-29.391-29.391s-29.391 13.185-29.391 29.391v11.709h-99.259V60.334c0-16.206-13.185-29.391-29.391-29.391s-29.391 13.185-29.391 29.391v11.709h-28.936V60.334c0-16.206-13.185-29.391-29.391-29.391S56.136 44.128 56.136 60.334v11.709H39.214C17.591 72.043 0 89.635 0 111.258v336.127c0 18.566 15.105 33.672 33.671 33.672h58.197c4.143 0 7.5-3.357 7.5-7.5a7.5 7.5 0 00-7.5-7.5H33.671C23.376 466.056 15 457.68 15 447.385V179.177h149.239c-11.259 17.212-17.816 37.764-17.816 59.821 0 60.421 49.155 109.577 109.576 109.577s109.577-49.156 109.577-109.577c0-22.058-6.557-42.61-17.816-59.821h49.353c4.142 0 7.5-3.357 7.5-7.5s-3.358-7.5-7.5-7.5h-60.468c-.216 0-.429.015-.641.032-20.011-21.393-48.471-34.787-80.006-34.787-31.518 0-59.966 13.381-79.975 34.755H15v-52.92c0-13.353 10.862-24.215 24.214-24.215H56.14v10.05c0 16.206 13.185 29.391 29.391 29.391s29.391-13.185 29.391-29.391v-10.05h28.936v10.05c0 16.206 13.185 29.391 29.391 29.391s29.391-13.185 29.391-29.391v-10.05h99.259v10.05c0 16.206 13.185 29.391 29.391 29.391s29.391-13.185 29.391-29.391v-10.05h28.936v10.05c0 16.206 13.185 29.391 29.391 29.391s29.391-13.185 29.391-29.391v-10.05h24.391c13.352 0 24.214 10.862 24.214 24.215v52.92h-64.886c-4.143 0-7.5 3.357-7.5 7.5s3.357 7.5 7.5 7.5H497v268.207c0 10.296-8.376 18.672-18.672 18.672H126.869a7.5 7.5 0 00-7.5 7.5c0 4.143 3.357 7.5 7.5 7.5h351.459c18.566 0 33.672-15.105 33.672-33.672V111.258c0-21.623-17.591-39.215-39.214-39.215zm-216.787 72.38c52.15 0 94.577 42.427 94.577 94.576 0 52.15-42.427 94.577-94.577 94.577-52.149 0-94.576-42.427-94.576-94.577s42.427-94.576 94.576-94.576zM99.921 97.093c0 7.934-6.456 14.391-14.391 14.391s-14.391-6.456-14.391-14.391V60.334c0-7.935 6.456-14.391 14.391-14.391s14.391 6.456 14.391 14.391zm87.717 0c0 7.934-6.456 14.391-14.391 14.391s-14.391-6.456-14.391-14.391V60.334c0-7.935 6.456-14.391 14.391-14.391 7.934 0 14.391 6.456 14.391 14.391zm158.04 0c0 7.934-6.456 14.391-14.391 14.391s-14.391-6.456-14.391-14.391V60.334c0-7.935 6.456-14.391 14.391-14.391s14.391 6.456 14.391 14.391zm87.717 0c0 7.934-6.456 14.391-14.391 14.391s-14.391-6.456-14.391-14.391V60.334c0-7.935 6.456-14.391 14.391-14.391s14.391 6.456 14.391 14.391z"/><path d="M152.355 368.174a7.501 7.501 0 00-5.268 7.16v49.197c0 4.143 3.357 7.5 7.5 7.5s7.5-3.357 7.5-7.5v-25.138l19.598 28.378c2.151 3.105 5.762 4.421 9.193 3.346 3.492-1.091 5.748-4.328 5.748-8.319l-.461-47.628a7.5 7.5 0 00-7.498-7.428h-.074a7.5 7.5 0 00-7.428 7.572l.249 25.669-20.655-29.911a7.499 7.499 0 00-8.404-2.898zm190.198 57.304l3.875-21.468 6.456 21.884a8.597 8.597 0 008.248 6.137h.042a8.598 8.598 0 008.231-6.214l6.23-21.858 4.128 21.596c.777 4.069 4.713 6.739 8.774 5.958a7.498 7.498 0 005.958-8.774l-9.192-48.102a8.621 8.621 0 00-7.953-6.881 8.622 8.622 0 00-8.76 6.2l-7.564 26.533-7.85-26.607a8.623 8.623 0 00-8.826-6.118c-3.902.263-7.143 3.128-7.896 7.052l-8.664 47.998a7.501 7.501 0 0014.763 2.664zm-33.676-.947v-49.289c0-4.143-3.357-7.5-7.5-7.5s-7.5 3.357-7.5 7.5v49.289c0 4.143 3.357 7.5 7.5 7.5s7.5-3.357 7.5-7.5zm132.121-41.564c4.143 0 7.5-3.357 7.5-7.5s-3.357-7.5-7.5-7.5h-20.579a7.499 7.499 0 00-7.5 7.5v48.84c0 4.143 3.357 7.5 7.5 7.5h20.579c4.143 0 7.5-3.357 7.5-7.5a7.5 7.5 0 00-7.5-7.5h-13.079v-9.42h11.562c4.143 0 7.5-3.357 7.5-7.5s-3.357-7.5-7.5-7.5h-11.562v-9.42zm-184.363 49.064a7.5 7.5 0 007.5-7.5v-41.789h6.165c4.143 0 7.5-3.357 7.5-7.5s-3.357-7.5-7.5-7.5h-27.22c-4.143 0-7.5 3.357-7.5 7.5s3.357 7.5 7.5 7.5h6.056v41.789a7.498 7.498 0 007.499 7.5zm-160.988 0c17.725 0 32.144-14.42 32.144-32.145s-14.42-32.145-32.144-32.145-32.145 14.42-32.145 32.145 14.42 32.145 32.145 32.145zm0-49.289c9.453 0 17.144 7.691 17.144 17.145s-7.691 17.145-17.144 17.145-17.145-7.691-17.145-17.145 7.692-17.145 17.145-17.145zm145.288-106.151c1.464 1.464 3.384 2.196 5.303 2.196s3.839-.732 5.304-2.196l58.672-58.672a7.5 7.5 0 00-10.607-10.607l-53.368 53.369-21.749-21.748a7.5 7.5 0 00-10.606 10.607zM62.091 231.74h46.178c4.143 0 7.5-3.357 7.5-7.5s-3.357-7.5-7.5-7.5H62.091c-4.142 0-7.5 3.357-7.5 7.5s3.358 7.5 7.5 7.5zm0 31.76h46.178c4.143 0 7.5-3.357 7.5-7.5s-3.357-7.5-7.5-7.5H62.091c-4.142 0-7.5 3.357-7.5 7.5s3.358 7.5 7.5 7.5zm341.639-31.76h46.179c4.143 0 7.5-3.357 7.5-7.5s-3.357-7.5-7.5-7.5H403.73c-4.143 0-7.5 3.357-7.5 7.5s3.357 7.5 7.5 7.5zm0 31.76h46.179c4.143 0 7.5-3.357 7.5-7.5s-3.357-7.5-7.5-7.5H403.73c-4.143 0-7.5 3.357-7.5 7.5s3.357 7.5 7.5 7.5z"/></svg>