<svg viewBox="-38 0 512 512" xmlns="http://www.w3.org/2000/svg"><path d="M376.559 363.781a351.744 351.744 0 0049.613-180.222V79.762c0-6.512-5.192-11.864-11.703-12.008-108.004-2.426-165.95-38.07-187-54.457a15.211 15.211 0 00-18.68 0c-21.05 16.387-78.996 52.031-187 54.457-6.512.144-11.703 5.496-11.703 12.008v103.797c0 131.914 73.723 252.949 191.234 312.878a857.78 857.78 0 005.7 2.875 24.846 24.846 0 0022.218 0c1.918-.957 3.82-1.917 5.7-2.875a349.3 349.3 0 00107.816-85.34" fill="#5ecef4"/><path d="M214.89 112.68c-12.417 9.664-46.6 30.691-110.312 32.125-3.84.086-6.902 3.238-6.902 7.082v61.23c0 77.813 43.488 149.211 112.804 184.563 1.11.566 2.23 1.132 3.364 1.699a14.686 14.686 0 0013.11 0c1.128-.567 2.25-1.133 3.358-1.7 69.32-35.35 112.81-106.75 112.81-184.562v-61.23c0-3.844-3.063-6.996-6.903-7.082-63.711-1.434-97.895-22.461-110.313-32.125a8.972 8.972 0 00-11.015 0zm0 0" fill="#fff5f5"/><path d="M221.059 192.625c20.836 0 37.789 20.988 37.789 46.785h30.847c0-42.805-30.789-77.633-68.636-77.633-37.844 0-68.633 34.828-68.633 77.633h30.844c0-25.797 16.953-46.785 37.789-46.785zm0 0" fill="#beebfa"/><path d="M221.059 192.625c-20.836 0-37.79 20.988-37.79 46.785h75.579c0-25.797-16.953-46.785-37.79-46.785zm0 0" fill="#fff"/><path d="M289.695 239.41H126.816v80.242c19.57 32.805 48.176 60.172 83.493 78.184.789.402 1.593.805 2.394 1.21l1.086.536a14.541 14.541 0 0012.977-.043l.98-.492c.8-.402 1.606-.805 2.395-1.211 35.39-18.047 64.043-45.496 83.617-78.39V239.41zM220.56 366.79c-25.973 0-47.032-21.06-47.032-47.032 0-25.973 21.059-47.028 47.032-47.028s47.027 21.055 47.027 47.028c0 25.972-21.055 47.031-47.027 47.031zm0 0" fill="#ff6379"/><path d="M220.559 272.73v17.208-17.208c-25.973 0-47.032 21.055-47.032 47.028 0 25.972 21.059 47.031 47.032 47.031v-17.21 17.21c25.972 0 47.027-21.059 47.027-47.031 0-25.973-21.055-47.028-47.027-47.028zm-46.528 46.258h17.207zm75.305 0h17.207zm0 0" fill="#fff"/><path d="M369.262 384.543c-2.086-5.164-7.965-7.656-13.13-5.57-5.163 2.086-7.66 7.96-5.573 13.129l.12.296a10.084 10.084 0 009.352 6.313c1.258 0 2.54-.238 3.778-.738 5.164-2.086 7.66-7.965 5.574-13.13zm0 0"/><path d="M414.7 57.668C308.937 55.293 252.862 20.281 233.663 5.34a25.27 25.27 0 00-31.07 0c-19.2 14.941-75.27 49.953-181.035 52.328C9.672 57.938 0 67.848 0 79.758v103.8c0 66.63 18.336 131.876 53.027 188.688 34.743 56.895 84.434 102.945 143.711 133.176a792.09 792.09 0 005.774 2.914A34.984 34.984 0 00218.129 512c5.363 0 10.73-1.223 15.617-3.664a792.11 792.11 0 005.774-2.914c39.863-20.332 75.18-47.567 104.96-80.945 3.711-4.157 3.348-10.532-.808-14.243-4.156-3.707-10.531-3.343-14.242.813-28.114 31.508-61.446 57.215-99.075 76.406-1.855.945-3.73 1.89-5.625 2.836a14.835 14.835 0 01-13.203 0 752.12 752.12 0 01-5.625-2.836C91.34 429.027 20.172 312.582 20.172 183.56V79.758c0-1.035.828-1.899 1.844-1.922 111.78-2.512 172.187-40.402 192.968-56.578a5.114 5.114 0 016.29 0c20.785 16.176 81.19 54.066 192.968 56.578 1.02.023 1.844.887 1.844 1.922v103.8c0 58.516-15.125 116.391-43.738 167.364-2.73 4.86-1 11.008 3.855 13.734 4.86 2.723 11.004 1 13.73-3.86 30.305-53.983 46.325-115.269 46.325-177.237V79.758c0-11.91-9.672-21.82-21.559-22.09zm0 0"/><path d="M108.805 154.957c6.468-.121 7.148-.156 15.027-1.191 5.523-.723 9.414-5.79 8.688-11.313-.723-5.523-5.79-9.414-11.313-8.687-6.95.914-6.95.914-12.781 1.023-1.215.02-2.664.047-4.446.09-9.238.207-16.757 7.91-16.757 17.164v61.23a217.635 217.635 0 0031.886 113.461c20.891 34.215 50.778 61.91 86.426 80.09 1.133.578 2.278 1.156 3.43 1.73a24.727 24.727 0 009.855 2.563 24.665 24.665 0 0012.469-2.563l1.492-.75 1.942-.98c36.422-18.578 66.75-47.008 87.703-82.222.3-.508.539-1.043.746-1.594a217.643 217.643 0 0029.664-109.735v-61.23c0-9.254-7.516-16.957-16.762-17.164-61.152-1.375-93.34-21.438-104.344-30a19.036 19.036 0 00-23.406 0l-1.297 1.016c-2.836 2.226-2.89 2.27-12.707 8.062-4.797 2.832-6.39 9.016-3.558 13.813s9.015 6.39 13.812 3.558c10.555-6.23 11.114-6.59 14.91-9.566l.551-.434c12.996 9.918 48.516 31.57 112.63 33.633v58.312c0 20.293-3.052 40.047-8.821 58.735V239.41c0-5.57-4.52-10.086-10.086-10.086h-14.504c-4.504-43.633-37.852-77.633-78.195-77.633-40.348 0-73.696 34-78.2 77.633h-16.043c-5.57 0-10.086 4.516-10.086 10.086v34.254c-6.109-19.176-9.34-39.496-9.34-60.39V154.98c.505-.007.977-.015 1.415-.023zm112.254 16.906c29.316 0 53.668 24.98 57.898 57.461H268.18c-4.02-26.562-23.621-46.785-47.121-46.785s-43.102 20.223-47.121 46.785H163.16c4.235-32.48 28.582-57.46 57.899-57.46zm26.586 57.461h-53.168c3.402-15.172 14.195-26.613 26.582-26.613 12.386 0 23.183 11.441 26.586 26.613zm-110.743 20.172h166.77v67.129c-.082.137-.168.27-.254.406a201.674 201.674 0 01-3.285 5.153c-.117.175-.235.347-.352.523a199.414 199.414 0 01-3.414 4.969c-.183.258-.367.508-.55.762a189.85 189.85 0 01-3.34 4.519c-.309.406-.625.805-.938 1.211-.95 1.227-1.91 2.441-2.89 3.645a180.54 180.54 0 01-1.688 2.039c-.633.761-1.277 1.515-1.926 2.265a197.747 197.747 0 01-2.945 3.34c-.215.238-.43.477-.649.715-15.671 17.168-34.543 31.7-56.074 42.68a641.82 641.82 0 01-3.293 1.66 4.574 4.574 0 01-1.996.476 4.473 4.473 0 01-1.824-.453l-1.5-.742c-.621-.316-1.242-.625-1.86-.941-32.14-16.391-59.054-41.258-77.992-72.02zm0 0"/><path d="M162.445 147.438c1.258 0 2.54-.235 3.774-.735 5.164-2.086 7.66-7.965 5.574-13.133l-.121-.297c-2.086-5.164-7.961-7.656-13.129-5.574-5.164 2.09-7.66 7.965-5.574 13.133l.12.297c1.587 3.926 5.368 6.309 9.356 6.309zm58.114 229.433c31.492 0 57.113-25.617 57.113-57.113 0-31.492-25.621-57.113-57.113-57.113-31.496 0-57.114 25.62-57.114 57.113 0 31.496 25.618 57.113 57.114 57.113zm-29.32-67.969h-5.993a.325.325 0 01.016-.058 38.14 38.14 0 01.68-1.98c.07-.192.148-.38.222-.567.188-.477.383-.945.586-1.41a41.435 41.435 0 01.969-2.023c.086-.169.172-.34.261-.505a36.12 36.12 0 011.036-1.812c.054-.09.113-.176.168-.266.312-.504.636-.996.972-1.484l.375-.524c.293-.406.59-.808.899-1.203.132-.168.261-.336.394-.5a40.27 40.27 0 011.18-1.39c.059-.063.113-.13.172-.192a37.42 37.42 0 011.441-1.504c.133-.129.266-.254.399-.379a41.261 41.261 0 011.64-1.484c.399-.34.805-.668 1.219-.988.137-.11.277-.223.418-.332a40.546 40.546 0 011.7-1.215c.081-.059.171-.11.253-.164.496-.328 1-.645 1.512-.945a39.249 39.249 0 012.46-1.34 35.972 35.972 0 011.669-.778c.082-.035.16-.074.238-.105a34.373 34.373 0 011.973-.77c.175-.066.359-.12.539-.183a36.6 36.6 0 011.836-.574v5.714c0 5.567 4.515 10.086 10.086 10.086 5.566 0 10.086-4.52 10.086-10.086v-5.714l.328.093a39.98 39.98 0 011.511.48c.176.063.356.118.532.184.668.239 1.328.493 1.976.77.074.031.149.07.223.101.57.247 1.129.508 1.683.782.192.097.38.195.567.293.45.23.894.472 1.332.722.187.106.375.211.558.32.512.305 1.02.622 1.516.95.082.055.168.105.25.164.582.387 1.145.797 1.7 1.215.144.105.28.219.421.332a36.264 36.264 0 012.856 2.472c.132.125.27.25.398.38.492.488.977.988 1.445 1.503.055.063.11.13.168.192.403.453.797.918 1.18 1.39.133.164.262.332.39.5.31.395.61.797.903 1.203.125.172.25.348.375.524.336.488.656.98.969 1.48l.176.27c.359.594.703 1.2 1.035 1.812.09.164.172.336.258.508.238.453.464.914.68 1.383.097.21.195.422.288.637.207.465.403.933.586 1.41.074.187.153.375.223.566.246.653.473 1.313.683 1.98.004.02.008.04.016.06h-6.535c-5.57 0-10.086 4.515-10.086 10.085 0 5.57 4.516 10.086 10.086 10.086h6.973c-.02.074-.043.145-.063.219a40.38 40.38 0 01-.547 1.848c-.07.214-.144.425-.219.636a33.912 33.912 0 01-.562 1.528c-.074.187-.145.375-.223.558a37.203 37.203 0 01-.879 1.969 9.893 9.893 0 01-.14.273c-.278.56-.567 1.11-.871 1.649-.106.191-.215.375-.325.562a33.52 33.52 0 01-.855 1.399c-.102.156-.2.316-.305.469-.394.593-.804 1.18-1.234 1.75-.07.093-.145.183-.219.277-.363.477-.742.945-1.133 1.402-.14.164-.28.328-.422.489-.363.414-.734.816-1.113 1.214l-.37.387c-.5.508-1.017 1-1.544 1.477-.101.09-.203.175-.305.261-.437.391-.886.77-1.343 1.137-.168.133-.34.266-.512.399-.438.343-.887.671-1.344.992-.136.097-.273.199-.414.297a39.3 39.3 0 01-1.805 1.16c-.125.074-.253.144-.378.219-.5.293-1.008.574-1.524.843-.191.102-.387.2-.578.297-.512.258-1.031.504-1.555.735-.144.066-.289.136-.433.199-.664.285-1.34.55-2.028.8-.144.051-.293.098-.441.149-.55.191-1.105.371-1.668.535-.105.031-.21.059-.316.09v-5.715c0-5.566-4.516-10.082-10.086-10.082s-10.086 4.516-10.086 10.082v5.715l-.317-.09a37.398 37.398 0 01-1.66-.531c-.152-.055-.305-.102-.453-.152a39.413 39.413 0 01-2.02-.797c-.152-.067-.3-.141-.453-.207a42.17 42.17 0 01-1.53-.723l-.595-.305a34.656 34.656 0 01-1.492-.832c-.137-.078-.273-.152-.406-.234a38.8 38.8 0 01-1.793-1.149l-.441-.316a40.6 40.6 0 01-1.848-1.39 38.756 38.756 0 01-1.305-1.098c-.113-.102-.226-.196-.34-.293-.52-.473-1.03-.961-1.523-1.461-.137-.14-.266-.281-.398-.422a38.96 38.96 0 01-1.528-1.691 36.92 36.92 0 01-1.097-1.356c-.083-.11-.168-.21-.25-.32a36.24 36.24 0 01-1.223-1.73c-.11-.165-.215-.337-.324-.505a43.362 43.362 0 01-.832-1.355c-.114-.195-.227-.395-.34-.59a39.213 39.213 0 01-.848-1.605c-.05-.106-.11-.207-.16-.313a40.218 40.218 0 01-.875-1.957c-.078-.187-.152-.383-.227-.578a36.305 36.305 0 01-.558-1.508c-.074-.215-.149-.43-.219-.644-.2-.61-.379-1.223-.547-1.844-.02-.074-.043-.145-.062-.219h6.433c5.57 0 10.086-4.52 10.086-10.086 0-5.57-4.515-10.09-10.086-10.09zm0 0"/></svg>