<svg xmlns="http://www.w3.org/2000/svg" viewBox="0 0 512 512"><path fill="#ebf8fe" d="M10.667 10.667h490.667v490.667H10.667z"/><path fill="#e1f5fe" d="M469.333 10.667h32v490.667h-32z"/><path fill="#03a9f4" d="M10.667 10.667h490.667V96H10.667z"/><path fill="#35baf6" d="M469.333 10.667h32V96h-32z"/><path d="M501.333 0H10.667C4.779 0 0 4.779 0 10.667v490.666C0 507.221 4.779 512 10.667 512h490.667c5.888 0 10.667-4.779 10.667-10.667V10.667C512 4.779 507.221 0 501.333 0zm-480 21.333h469.333v64H21.333v-64zm0 469.334v-384h469.333v384H21.333z"/><path d="M42.667 42.667H64V64H42.667zm42.666 0h21.333V64H85.333zm42.667 0h21.333V64H128zm298.667 0h42.667V64h-42.667z"/><circle cx="256" cy="256" r="85.333" fill="#faca4f"/><path d="M335.765 286.091c-10.677 28.277-35.893 49.333-66.571 54.112l76.544 76.544 7.541-52.8 52.8-7.541-70.314-70.315zm-159.53 0l-70.325 70.325 52.8 7.541 7.541 52.8 76.544-76.544c-30.678-4.778-55.883-25.834-66.56-54.122z" fill="#ff5722"/><path d="M413.632 348.875L348 283.243c2.571-8.651 4-17.771 4-27.243 0-52.928-43.072-96-96-96s-96 43.072-96 96c0 9.472 1.429 18.592 4 27.243l-65.632 65.632a10.656 10.656 0 006.027 18.091l44.885 6.411 6.411 44.885a10.637 10.637 0 0010.55 9.152c2.784 0 5.515-1.099 7.541-3.125l72.779-72.779c3.115.32 6.251.491 9.44.491s6.325-.171 9.429-.48l72.779 72.779a10.676 10.676 0 0010.912 2.581 10.655 10.655 0 007.179-8.608l6.411-44.885 44.885-6.411c4-.565 7.339-3.349 8.608-7.179s.287-8.065-2.572-10.923zm-191.456-3.126l-48.384 48.384-4.523-31.68a10.634 10.634 0 00-9.045-9.045l-31.68-4.523 44.587-44.587c.256.448.565.853.832 1.291 1.109 1.824 2.24 3.637 3.456 5.387.341.48.704.928 1.056 1.408a96.538 96.538 0 0021.376 21.323c.299.224.587.459.896.672 1.899 1.344 3.872 2.592 5.877 3.797.405.245.789.491 1.195.725a96.212 96.212 0 006.208 3.307c.384.181.757.373 1.141.555a91.394 91.394 0 006.731 2.869c.085.032.181.075.277.117zm22.336-16.064c-.021 0-.053-.021-.075-.021a74.312 74.312 0 01-27.403-10.091c-.085-.053-.181-.107-.267-.16a74.743 74.743 0 01-14.837-12.064c-.107-.107-.203-.224-.299-.331a74.59 74.59 0 01-5.803-6.997c-.117-.171-.245-.331-.373-.501a74.496 74.496 0 01-9.205-17.099c-3.125-8.224-4.917-17.109-4.917-26.421 0-41.173 33.493-74.667 74.667-74.667s74.667 33.493 74.667 74.667c0 9.312-1.792 18.197-4.917 26.432a74.534 74.534 0 01-9.205 17.099c-.117.171-.245.331-.373.501a76.174 76.174 0 01-5.803 6.997c-.107.107-.203.224-.299.331a74.743 74.743 0 01-14.837 12.064c-.085.053-.181.107-.267.16a74.168 74.168 0 01-27.403 10.091c-.021 0-.053.021-.075.021-3.755.576-7.573.971-11.488.971s-7.733-.395-11.488-.982zm107.264 23.712a10.634 10.634 0 00-9.045 9.045l-4.523 31.68-48.384-48.384c.096-.032.181-.085.277-.117a97.277 97.277 0 006.731-2.869 36.5 36.5 0 001.141-.555 96.212 96.212 0 006.208-3.307c.405-.235.811-.491 1.216-.736 1.995-1.205 3.968-2.453 5.867-3.797.309-.213.597-.448.896-.672a96.397 96.397 0 0021.365-21.312c.352-.48.715-.928 1.056-1.408 1.227-1.749 2.357-3.552 3.456-5.387.267-.437.576-.853.832-1.291l44.587 44.587-31.68 4.523z"/><path fill="#ff5722" d="M256.459 201.707l16.33 33.109 36.544 5.312-26.442 25.771 6.24 36.394-32.672-17.184-32.683 17.184 6.24-36.394-26.443-25.771 36.544-5.312z"/></svg>