<svg viewBox="-73 0 512 512" xmlns="http://www.w3.org/2000/svg"><path d="M244.195 68.738c0 33.82-27.414 61.235-61.234 61.235s-61.238-27.414-61.238-61.235c0-33.82 27.418-61.238 61.238-61.238s61.234 27.418 61.234 61.238zm0 0" fill="#ffb44f"/><path d="M212.023 68.738c0 16.051-13.011 29.063-29.062 29.063-16.05 0-29.063-13.012-29.063-29.063s13.012-29.062 29.063-29.062c16.05 0 29.062 13.011 29.062 29.062zm0 0" fill="#ffe967"/><path d="M355.574 244.137L182.961 344.453 10.344 244.137c9.687-70.075 53.168-52.66 53.168-107.946l119.449-29.058 119.45 29.058c0 55.286 43.48 37.871 53.163 107.946zm0 0" fill="#6ee6db"/><path d="M40.344 244.137c9.687-70.075 53.168-52.664 53.168-107.946l104.449-25.41-15-3.648L63.51 136.19c0 55.286-43.48 37.871-53.167 107.946L182.96 344.453l15-8.715zm0 0" fill="#26bed3"/><path d="M351.629 444.773c-3.863 13.914-9.817 26.336-18.879 38.75a51.125 51.125 0 01-41.293 20.977H74.465a51.115 51.115 0 01-41.293-20.977c-9.063-12.414-15.016-24.836-18.879-38.75l168.668-100.32zm0 0" fill="#6ee6db"/><path d="M63.172 483.52c-9.063-12.41-15.016-24.833-18.879-38.747l153.668-91.394-15-8.926-168.668 100.32c3.863 13.914 9.816 26.336 18.879 38.75A51.125 51.125 0 0074.465 504.5h30a51.118 51.118 0 01-41.293-20.98zm0 0" fill="#26bed3"/><path d="M305.707 78.07H60.215c-10.38 0-18.79 8.41-18.79 18.79v20.542c0 10.38 8.41 18.793 18.79 18.793h245.492c10.379 0 18.79-8.414 18.79-18.793V96.86c0-10.379-8.411-18.789-18.79-18.789zm0 0" fill="#7e7ce8"/><path d="M71.426 117.406V96.86c0-10.379 8.41-18.793 18.789-18.793h-30c-10.38 0-18.79 8.414-18.79 18.793v20.543c0 10.38 8.41 18.793 18.79 18.793h30c-10.38 0-18.79-8.414-18.79-18.789zm0 0" fill="#7c62e8"/><path d="M351.629 444.773H14.293c-10.305-37.007-5.844-84.48-5.844-169.84 0-11.855.684-22.015 1.895-30.796h345.23c1.215 8.781 1.895 18.941 1.895 30.797 0 85.359 4.46 132.832-5.84 169.84zm0 0" fill="#7e7ce8"/><path d="M38.45 274.93c0-11.852.683-22.012 1.894-30.793h-30c-1.211 8.777-1.895 18.941-1.895 30.793 0 85.36-4.46 132.836 5.844 169.843h30c-10.305-37.007-5.844-84.48-5.844-169.843zm0 0" fill="#7c62e8"/><path d="M15.34 395.227a7.5 7.5 0 10-14.988.535c.757 21.351 2.828 37.086 6.703 51.02C15.672 478.815 37.852 512 74.457 512h216.988c36.73 0 58.532-33.277 67.399-65.223 7.949-28.566 7.441-62.289 6.668-113.336-.133-8.8-.274-18.125-.38-28.03a7.5 7.5 0 00-7.495-7.419h-.082a7.5 7.5 0 00-7.422 7.582c.11 9.926.25 19.27.383 28.094.699 46.367 1.18 78.07-4.73 103.605H20.108c-2.66-11.476-4.152-24.742-4.77-42.046zm325.969 57.046c-3.543 9.457-8.297 18.157-14.63 26.829C318.505 490.309 305.333 497 291.446 497H74.457c-25.852 0-41.664-22.824-49.863-44.727zm-222.43-249.582a7.5 7.5 0 007.5-7.5v-11.597a7.5 7.5 0 10-15 0v11.597c0 4.145 3.355 7.5 7.5 7.5zm128.141 0c4.144 0 7.5-3.355 7.5-7.5v-11.597a7.5 7.5 0 10-15 0v11.597a7.5 7.5 0 007.5 7.5zm-64.07 6.192c8.327 0 16.148-3.485 21.46-9.563a7.502 7.502 0 00-11.297-9.871c-2.46 2.817-6.164 4.43-10.164 4.43s-7.707-1.613-10.168-4.43a7.497 7.497 0 00-10.582-.71 7.5 7.5 0 00-.71 10.581c5.312 6.075 13.132 9.563 21.46 9.563zm0 0"/><path d="M151.363 375.672c-5.488 0-9.91 7.433-9.91 12.387 0 9.91 16.102 21.414 37.516 21.945v4.953c0 2.3 2.656 4.426 6.015 4.426 3.008 0 6.016-2.125 6.016-4.426v-5.484c19.82-3.188 33.445-15.75 33.445-37.52 0-24.066-17.695-32.027-33.445-37.867V302.94c11.86.883 15.93 6.547 20.883 6.547 6.547 0 9.379-8.14 9.379-12.21 0-10.266-18.758-13.626-30.262-13.981v-4.602c0-2.3-3.008-4.422-6.016-4.422-3.359 0-6.015 2.122-6.015 4.422v4.957c-17.7 2.297-34.332 12.032-34.332 34.508 0 22.649 18.226 29.55 34.332 35.567v35.218c-15.574-1.77-20.883-13.273-27.606-13.273zm38.223-17.695c7.61 3.363 13.273 7.609 13.273 16.28 0 8.317-5.488 12.919-13.273 14.513zm-23.36-42.118c0-6.726 5.31-10.972 14.157-12.386v26.718c-8.14-3.183-14.156-6.546-14.156-14.332zm0 0"/><path d="M36.316 178.305c-12.511 11.703-28.082 26.265-33.41 64.797 0 0 0 .003-.004.007-1.3 9.438-1.96 20.145-1.96 31.825 0 21.824-.297 41.312-.555 58.511C.215 344.82.055 355.57 0 365.453a7.495 7.495 0 007.46 7.54h.04a7.5 7.5 0 007.5-7.458c.055-9.812.215-20.523.387-31.863.258-17.25.554-36.8.554-58.738 0-8.375.356-16.18 1.059-23.297h331.898c.704 7.117 1.063 14.922 1.063 23.297v.558c0 4.145 3.355 7.5 7.5 7.5a7.5 7.5 0 007.5-7.5v-.558c0-11.68-.664-22.387-1.969-31.825-5.324-38.535-20.898-53.101-33.41-64.804-10.195-9.535-17.863-16.72-19.394-35 12.363-2.14 21.796-12.934 21.796-25.899V96.86c0-14.496-11.793-26.289-26.289-26.289h-54.043c.016-.613.036-1.222.036-1.836C251.688 30.836 220.851 0 182.948 0c-37.902 0-68.738 30.836-68.738 68.738 0 .61.02 1.219.035 1.832H60.203c-14.496 0-26.289 11.793-26.289 26.29v20.546c0 12.965 9.434 23.758 21.797 25.899-1.531 18.28-9.195 25.465-19.395 35zm125.07-109.567c0-11.89 9.673-21.562 21.563-21.562s21.563 9.672 21.563 21.562c0 .614-.028 1.223-.078 1.832h-42.97a20.461 20.461 0 01-.077-1.832zM182.95 15c29.63 0 53.738 24.105 53.738 53.738 0 .61-.011 1.219-.03 1.832H219.46c.031-.61.05-1.222.05-1.832 0-20.164-16.402-36.562-36.562-36.562-20.16 0-36.562 16.398-36.562 36.562 0 .61.02 1.223.05 1.832h-17.195a57.504 57.504 0 01-.031-1.832C129.215 39.105 153.32 15 182.949 15zM48.914 117.402V96.86c0-6.226 5.063-11.289 11.29-11.289h245.491c6.227 0 11.29 5.063 11.29 11.29v20.542c0 6.227-5.063 11.293-11.29 11.293H60.203c-6.226 0-11.289-5.066-11.289-11.293zm21.809 26.293h224.453c1.89 24.739 13.195 35.313 24.16 45.567 10.82 10.117 21.973 20.55 27.363 47.375H19.2c5.39-26.825 16.543-37.258 27.364-47.375 10.964-10.254 22.269-20.828 24.16-45.567zm0 0"/></svg>