<svg xmlns="http://www.w3.org/2000/svg" viewBox="0 0 512 512"><path d="M344.07 460.981v.92c0 5.96-4.83 10.79-10.79 10.79H182.31c-5.96 0-10.8-4.83-10.8-10.79v-.92c0-4.21 2.48-7.97 6.28-9.8 14.87-7.18 23.49-20.99 28.47-34.16 6.28-16.6 6.78-32.19 6.78-32.19h89.5s.51 15.59 6.79 32.19c4.98 13.17 13.59 26.98 28.47 34.16 3.79 1.83 6.27 5.59 6.27 9.8z" fill="#def2fc"/><path d="M309.33 417.021H206.26c6.28-16.6 6.78-32.19 6.78-32.19h89.5s.51 15.59 6.79 32.19z" fill="#bcced5"/><path d="M504.5 56.181v322.76c0 13.85-11.23 25.08-25.08 25.08H32.58c-13.86 0-25.08-11.23-25.08-25.08V56.181c0-9.32 7.55-16.87 16.88-16.87h463.24c9.33 0 16.88 7.55 16.88 16.87z" fill="#456b93"/><path d="M504.5 68.471v310.47c0 13.85-11.23 25.08-25.08 25.08H116.99a319.991 319.991 0 012.58-75.27c1.81-11.74 4.29-23.43 7.37-34.73 1.53-5.65 3.22-11.26 5.02-16.65 20.8-62.67 60.07-116.54 113.58-155.8 54.61-40.06 119.38-61.24 187.31-61.24 24.2 0 48.3 2.74 71.65 8.14z" fill="#3b4f66"/><path d="M504.5 81.831v297.11c0 13.85-11.23 25.08-25.08 25.08H130.03a306.4 306.4 0 01-1.16-26.71c0-15.84 1.21-31.39 3.55-46.58a300.22 300.22 0 017.06-33.29c1.46-5.38 3.06-10.71 4.81-15.97 40.14-120.92 154.17-208.14 288.56-208.14 24.68 0 48.67 2.94 71.65 8.5z" fill="#04a1ee"/><path d="M504.5 330.731v48.21c0 13.85-11.23 25.08-25.08 25.08H130.03a306.4 306.4 0 01-1.16-26.71c0-15.84 1.21-31.39 3.55-46.58H504.5zm0-248.9v235.01h-24.602a18.44 18.44 0 01-13.452-5.827l-14.676-15.653c-5.97-6.38-7.3-15.87-3.31-23.64l8.4-16.35-28-16.26-25.66 5.7c-1.47.33-2.98.5-4.49.5-2.17 0-4.32-.34-6.39-1.01l-52.26-16.93a20.791 20.791 0 01-13.31-13.29l-6.93-21.26-13.04 2.98 2.63 27.85 1.89 1.11c7.4 4.35 11.39 12.95 9.93 21.41l-4.63 26.69c-1.4 8.09-7.47 14.6-15.44 16.57l-35.5 8.76c-1.63.4-3.3.61-4.97.61-10.52 0-19.36-7.88-20.57-18.34l-1.74-15.01-13.78 2.36-8.69 14.58c-3.71 6.23-10.53 10.11-17.79 10.11h-46.43l-12.21 4.94c1.46-5.38 3.06-10.71 4.81-15.97 40.14-120.92 154.17-208.14 288.56-208.14 24.68 0 48.67 2.94 71.65 8.5z" fill="#0084ce"/><path d="M504.5 81.831v222.01h-23.001a9.135 9.135 0 01-6.666-2.889l-13.576-14.486a7.715 7.715 0 01-1.233-8.8l10.697-20.819a7.714 7.714 0 00-2.987-10.196l-34.128-19.818a7.71 7.71 0 00-5.547-.859l-27.677 6.151a7.72 7.72 0 01-4.051-.192l-52.262-16.931a7.716 7.716 0 01-4.957-4.947l-8.428-25.854a7.714 7.714 0 00-9.053-5.129l-22.274 5.092a7.714 7.714 0 00-5.961 8.245l3.322 35.162a7.712 7.712 0 003.777 5.928l4.224 2.478a7.713 7.713 0 013.697 7.971l-4.627 26.69a7.713 7.713 0 01-5.751 6.171l-35.494 8.763c-4.512 1.114-8.977-1.986-9.511-6.602l-2.378-20.551c-.508-4.394-4.6-7.461-8.96-6.717l-21.687 3.702a7.714 7.714 0 00-5.329 3.656l-9.935 16.677a7.715 7.715 0 01-6.627 3.766h-47.456c-.991 0-1.974.191-2.893.563l-3.478 1.407c40.14-120.92 154.17-208.14 288.56-208.14 24.68-.002 48.67 2.938 71.65 8.498z" fill="#54cc4e"/><path d="M504.5 343.729v35.214c0 13.845-11.233 25.078-25.078 25.078H32.578c-13.856 0-25.078-11.233-25.078-25.078v-35.214h497z" fill="#def2fc"/><circle cx="256" cy="373.17" r="11.665" fill="#bcced5"/><path d="M67.55 188.176v20.494c0 3.901 4.193 6.364 7.6 4.465l18.387-10.247c3.498-1.949 3.498-6.981 0-8.93L75.15 183.711c-3.407-1.898-7.6.565-7.6 4.465z" fill="#04a1ee"/><path d="M366.522 300.031c-6.857 0-13.228-3.711-16.626-9.685a19.18 19.18 0 01.186-19.249l8.511-14.318c3.435-5.777 9.743-9.366 16.466-9.366 3.18 0 6.34.804 9.139 2.326l7.21 3.918a19.092 19.092 0 019.352 21.784l-2.592 9.664a19.117 19.117 0 01-17.422 14.158l-13.13.737c-.367.021-.733.031-1.094.031z" fill="#0084ce"/><path d="M377.989 261.16l7.21 3.918a6.148 6.148 0 013.003 6.995l-2.592 9.663a6.15 6.15 0 01-5.594 4.546l-13.129.737c-4.915.276-8.146-5.049-5.63-9.281l8.511-14.319a6.15 6.15 0 018.221-2.259z" fill="#54cc4e"/><path d="M487.625 31.809H222.506a7.5 7.5 0 000 15h265.119c5.169 0 9.375 4.206 9.375 9.376v16.274a313.197 313.197 0 00-64.15-6.628c-55.944 0-110.813 15.005-158.673 43.393a7.5 7.5 0 003.833 13.952 7.462 7.462 0 003.819-1.05c45.545-27.015 97.768-41.294 151.021-41.294 21.653 0 43.217 2.347 64.15 6.969v208.542h-15.503c-.451 0-.887-.189-1.194-.517l-13.576-14.486a.216.216 0 01-.034-.245l10.696-20.815c3.703-7.206 1.116-16.04-5.891-20.109l-34.124-19.819a15.18 15.18 0 00-10.944-1.696l-27.672 6.153a.223.223 0 01-.112-.005l-52.263-16.936a.215.215 0 01-.137-.137l-8.432-25.855c-2.456-7.531-10.131-11.878-17.854-10.114l-22.273 5.091c-7.418 1.695-12.473 8.687-11.757 16.262l3.32 35.163a15.252 15.252 0 007.452 11.693l4.223 2.475a.216.216 0 01.103.22l-4.624 26.695a.216.216 0 01-.16.171l-35.498 8.758c-.042.01-.093.023-.174-.032-.079-.055-.085-.108-.09-.151l-2.376-20.545c-.478-4.131-2.659-7.93-5.985-10.425s-7.584-3.524-11.686-2.825l-21.689 3.699a15.19 15.19 0 00-10.511 7.211l-9.934 16.675a.216.216 0 01-.185.105h-42.492c19.581-51.613 53.022-96.487 97.291-130.342a7.5 7.5 0 00-9.113-11.915c-50.021 38.254-86.894 89.903-106.63 149.359a306.517 306.517 0 00-4.929 16.366 308.927 308.927 0 00-7.237 34.121 310.97 310.97 0 00-.942 6.64H15V56.185c0-5.17 4.206-9.376 9.375-9.376h164.452a7.5 7.5 0 000-15H24.375C10.935 31.809 0 42.744 0 56.185v322.758c0 17.964 14.614 32.578 32.578 32.578h167.689c-4.295 12.669-11.984 26.27-25.731 32.903-6.493 3.126-10.526 9.471-10.526 16.557v.92c0 10.085 8.209 18.29 18.3 18.29h150.97c10.085 0 18.29-8.205 18.29-18.29v-.92c0-7.082-4.027-13.424-10.512-16.555-13.742-6.63-21.436-20.233-25.74-32.905h60.175c4.143 0 7.5-3.358 7.5-7.5s-3.357-7.5-7.5-7.5H32.578c-9.692 0-17.578-7.886-17.578-17.578v-27.714h482v27.714c0 9.692-7.886 17.578-17.578 17.578h-70.249c-4.143 0-7.5 3.358-7.5 7.5s3.357 7.5 7.5 7.5h70.249c17.964 0 32.578-14.614 32.578-32.578V56.185c0-13.441-10.935-24.376-24.375-24.376zM334.539 457.936c1.253.604 2.031 1.771 2.031 3.045v.92a3.294 3.294 0 01-3.29 3.29H182.31c-1.82 0-3.3-1.476-3.3-3.29v-.92c0-1.272.779-2.438 2.04-3.045 20.155-9.724 30.063-29.581 34.933-46.415h83.619c4.879 16.837 14.794 36.696 34.937 46.415zM139.204 336.229c.202-1.456.407-2.913.629-4.357a293.786 293.786 0 016.886-32.466 293.725 293.725 0 013.662-12.404h47.737c5.332 0 10.34-2.845 13.07-7.427l9.935-16.676a.215.215 0 01.147-.102l21.688-3.699c.036-.004.09-.016.165.04.073.055.08.109.084.146l2.375 20.545c.501 4.339 2.847 8.258 6.436 10.75s8.079 3.32 12.322 2.274l35.498-8.758a15.217 15.217 0 0011.347-12.174l4.624-26.695c1.077-6.215-1.856-12.533-7.297-15.722l-4.222-2.474a.215.215 0 01-.104-.165l-3.32-35.163a.214.214 0 01.165-.228l22.274-5.091a.213.213 0 01.25.142l8.432 25.855a15.259 15.259 0 009.774 9.756l52.262 16.936c2.581.836 5.344.967 7.992.378l27.671-6.153a.213.213 0 01.155.024l34.124 19.82a.213.213 0 01.083.283l-10.696 20.817a15.246 15.246 0 002.431 17.355l13.577 14.488a16.702 16.702 0 0012.139 5.259H497v24.887H139.204v-.001z"/><path d="M236.835 373.166c0 10.568 8.597 19.165 19.165 19.165 10.567 0 19.165-8.597 19.165-19.165s-8.598-19.165-19.165-19.165c-10.568 0-19.165 8.597-19.165 19.165zm23.33 0a4.17 4.17 0 01-4.165 4.165c-2.296 0-4.165-1.869-4.165-4.165s1.869-4.165 4.165-4.165a4.17 4.17 0 014.165 4.165zM67.55 113.546h16a7.5 7.5 0 000-15h-16a7.5 7.5 0 000 15zm75.204 16H67.55a7.5 7.5 0 000 15h75.205a7.5 7.5 0 10-.001-15zm7.5 27.5a7.5 7.5 0 00-7.5-7.5H67.55a7.5 7.5 0 000 15h75.205a7.5 7.5 0 007.499-7.5zm-42.623-43.5a7.5 7.5 0 000-15h-1.496a7.5 7.5 0 000 15h1.496zm-28.83 63.614c-3.949-2.201-8.632-2.147-12.528.143-3.896 2.289-6.223 6.354-6.223 10.874v20.494c0 4.52 2.327 8.584 6.223 10.874a12.577 12.577 0 006.386 1.756c2.104 0 4.211-.537 6.142-1.613l18.389-10.247a12.62 12.62 0 006.471-11.017c0-4.57-2.48-8.791-6.472-11.016L78.801 177.16zm-3.751 27.445v-12.363l11.093 6.182-11.093 6.181zm313.73 53.884l-7.209-3.918a13.61 13.61 0 00-18.251 5.018l-8.511 14.318a13.623 13.623 0 00.063 14.053 13.615 13.615 0 0012.435 6.549l13.128-.737a13.627 13.627 0 0012.418-10.091l2.592-9.664a13.605 13.605 0 00-6.665-15.528zm-10.16 20.361l-9.619.541 6.55-11.02 5.132 2.789-2.063 7.69zm73.047-121.016c4.143 0 7.5-3.358 7.5-7.5s-3.357-7.5-7.5-7.5h-1.497c-4.143 0-7.5 3.358-7.5 7.5s3.357 7.5 7.5 7.5h1.497zm-51.837 6.712c4.143 0 7.5-3.358 7.5-7.5s-3.357-7.5-7.5-7.5h-1.497c-4.143 0-7.5 3.358-7.5 7.5s3.357 7.5 7.5 7.5h1.497zm-160.511 38.955a7.5 7.5 0 000 15h1.497a7.5 7.5 0 000-15h-1.497zm179.014-26.189c4.143 0 7.5-3.358 7.5-7.5s-3.357-7.5-7.5-7.5h-1.496c-4.143 0-7.5 3.358-7.5 7.5s3.357 7.5 7.5 7.5h1.496z"/></svg>