<svg width="15" height="15" fill="none" xmlns="http://www.w3.org/2000/svg"><path fill-rule="evenodd" clip-rule="evenodd" d="M9.59 4.647a.793.793 0 00-.185 0l-3.35.867a.741.741 0 00-.541.54l-.845 3.38a.741.741 0 00.741.92.797.797 0 00.185 0l3.387-.868a.741.741 0 00.541-.54l.845-3.38a.741.741 0 00-.741-.92H9.59zm-.815 1.549l-.52 2.09-2.089.518.519-2.09 2.09-.518z" fill="#509AFC"/><path fill-rule="evenodd" clip-rule="evenodd" d="M9.071 0H5.93A5.929 5.929 0 000 5.929V9.07A5.929 5.929 0 005.929 15H9.07A5.929 5.929 0 0015 9.071V5.93A5.929 5.929 0 009.071 0zM5.93 13.888a4.825 4.825 0 01-4.817-4.817V5.93A4.825 4.825 0 015.93 1.113h3.14a4.825 4.825 0 014.817 4.817v3.14a4.824 4.824 0 01-4.817 4.817H5.93z" fill="#509AFC"/></svg>