<svg viewBox="1 -16 511.999 511" xmlns="http://www.w3.org/2000/svg"><path d="M480.684 472.883H31.316c-13.152 0-23.816-10.664-23.816-23.817V31.816C7.5 18.664 18.164 8 31.316 8h449.368C493.84 8 504.5 18.664 504.5 31.816v417.25c0 13.153-10.664 23.817-23.816 23.817zm0 0" fill="#f4f4f4"/><path d="M480.684 8h-35C458.836 8 469.5 18.664 469.5 31.816v417.25c0 13.153-10.664 23.817-23.816 23.817h35c13.152 0 23.816-10.664 23.816-23.817V31.816C504.5 18.664 493.836 8 480.684 8zm0 0" fill="#e8e8e8"/><path d="M7.5 97.465h497V31.816C504.5 18.664 493.836 8 480.684 8H31.316C18.164 8 7.5 18.664 7.5 31.816zm0 0" fill="#fba826"/><path d="M480.684 8h-35C458.836 8 469.5 18.664 469.5 31.816v65.649h35V31.816C504.5 18.664 493.836 8 480.684 8zm0 0" fill="#e09721"/><path d="M84.809 52.73c0 9.75-7.903 17.657-17.653 17.657S49.5 62.48 49.5 52.73s7.906-17.652 17.656-17.652S84.81 42.98 84.81 52.73zm0 0" fill="#fa5d72"/><path d="M144.57 52.73c0 9.75-7.906 17.657-17.656 17.657s-17.652-7.907-17.652-17.657 7.902-17.652 17.652-17.652S144.57 42.98 144.57 52.73zm0 0" fill="#5994ce"/><path d="M204.328 52.73c0 9.75-7.902 17.657-17.652 17.657S169.02 62.48 169.02 52.73s7.906-17.652 17.656-17.652 17.652 7.902 17.652 17.652zm0 0" fill="#2cab72"/><path d="M308.063 274.738H203.938c-7.7 0-13.946-6.715-13.946-15v-64.36c0-31.944 24.164-57.937 53.863-57.937h24.29c29.699 0 53.863 25.993 53.863 57.938v64.36c0 8.284-6.246 15-13.945 15zm-90.18-30h76.234v-49.36c0-15.405-11.652-27.937-25.972-27.937h-24.29c-14.32 0-25.972 12.532-25.972 27.938zm0 0" fill="#495663"/><path d="M268.145 137.441h-24.29c-.53 0-1.058.028-1.585.043 28.964.91 52.273 26.52 52.273 57.895v64.36c0 8.284-6.242 15-13.945 15h27.464c7.7 0 13.946-6.716 13.946-15v-64.36c0-31.945-24.164-57.938-53.863-57.938zm0 0" fill="#3a444f"/><path d="M326.754 429.242H185.246c-18.36 0-33.246-14.887-33.246-33.246V268.492c0-18.363 14.887-33.25 33.246-33.25H326.75c18.363 0 33.25 14.887 33.25 33.25v127.5c0 18.363-14.887 33.25-33.246 33.25zm0 0" fill="#fba826"/><path d="M326.75 235.242h-42.738c18.363 0 33.25 14.887 33.25 33.25v127.5c0 18.363-14.887 33.25-33.25 33.25h42.738c18.363 0 33.25-14.887 33.25-33.25v-127.5c0-18.363-14.887-33.25-33.25-33.25zm0 0" fill="#e09721"/><path d="M283.465 316.563c0-16.2-14.024-29.122-30.594-27.29-12.816 1.418-23.047 11.875-24.219 24.715-.914 10.063 3.606 19.13 10.957 24.606a10.002 10.002 0 014.059 8.023v19.2c0 6.792 5.312 12.617 12.102 12.742 6.918.125 12.562-5.446 12.562-12.332V346.62c0-3.203 1.574-6.164 4.137-8.086 6.676-5.012 10.996-12.984 10.996-21.973zm0 0" fill="#f6d867"/><path d="M92.309 52.734c0-13.87-11.282-25.156-25.153-25.156S42 38.863 42 52.734c0 13.868 11.285 25.153 25.156 25.153 13.867 0 25.153-11.285 25.153-25.153zM67.156 62.887C61.555 62.887 57 58.332 57 52.734c0-5.601 4.559-10.156 10.156-10.156S77.31 47.133 77.31 52.734c0 5.598-4.555 10.153-10.153 10.153zm59.758 15c13.871 0 25.156-11.285 25.156-25.153 0-13.87-11.285-25.156-25.156-25.156-13.871 0-25.152 11.285-25.152 25.156 0 13.868 11.281 25.153 25.152 25.153zm0-35.309c5.602 0 10.156 4.555 10.156 10.156 0 5.598-4.558 10.153-10.156 10.153-5.598 0-10.152-4.555-10.152-10.153 0-5.601 4.554-10.156 10.152-10.156zm59.762 35.309c13.867 0 25.152-11.285 25.152-25.153 0-13.87-11.285-25.156-25.152-25.156-13.871 0-25.156 11.285-25.156 25.156 0 13.868 11.285 25.153 25.156 25.153zm0-35.309c5.597 0 10.152 4.555 10.152 10.156 0 5.598-4.555 10.153-10.152 10.153-5.602 0-10.156-4.555-10.156-10.153 0-5.601 4.554-10.156 10.156-10.156zm82.992 17.656h182.664a7.5 7.5 0 007.5-7.5c0-4.144-3.355-7.5-7.5-7.5H269.668a7.497 7.497 0 00-7.5 7.5 7.5 7.5 0 007.5 7.5zm0 0"/><path d="M480.684.5H31.316C14.051.5 0 14.547 0 31.816v417.25c0 17.27 14.05 31.317 31.316 31.317h449.368c17.265 0 31.316-14.047 31.316-31.317V31.816C512 14.546 497.95.5 480.684.5zm0 464.883H31.316c-8.996 0-16.316-7.32-16.316-16.317V104.965h41.809a7.5 7.5 0 007.5-7.5c0-4.145-3.356-7.5-7.5-7.5H15V31.816C15 22.82 22.32 15.5 31.316 15.5h449.368C489.68 15.5 497 22.82 497 31.816v58.149H84.809a7.5 7.5 0 100 15H497v344.101c0 8.997-7.32 16.317-16.316 16.317zm0 0"/><path d="M279.316 290.512c-7.394-6.625-17.332-9.793-27.27-8.692-31.163 3.442-42.452 43.77-16.917 62.79 1.836 1.367.687 1.902 1.039 21.21 0 10.961 8.73 20.04 19.465 20.239 11.039.214 20.199-8.668 20.199-19.832.39-19.836-.875-20.184 1.14-21.692 17.856-13.406 18.602-39.469 2.344-54.023zm-11.347 42.023c-4.469 3.352-7.137 8.617-7.137 14.086v19.606c0 2.722-2.223 4.87-4.926 4.832-2.566-.047-4.738-2.45-4.738-5.243v-19.203c0-5.488-2.648-10.734-7.078-14.035-15.281-11.387-7.422-35.98 11.926-35.98 19.09 0 27.277 24.437 11.953 35.937zm0 0"/><path d="M329.508 227.836v-32.457c0-36.082-27.528-65.438-61.363-65.438h-24.286c-33.836 0-61.363 29.356-61.363 65.438v32.457c-21.191 1.418-37.996 19.11-37.996 40.652v127.504c0 22.469 18.281 40.75 40.75 40.75h82.887a7.5 7.5 0 007.5-7.5c0-4.144-3.356-7.5-7.5-7.5H185.25c-14.2 0-25.75-11.55-25.75-25.75v-127.5c0-14.199 11.55-25.75 25.75-25.75h141.504c14.195 0 25.746 11.551 25.746 25.75v127.5c0 14.2-11.55 25.75-25.746 25.75h-30.617c-4.14 0-7.5 3.36-7.5 7.5 0 4.14 3.36 7.5 7.5 7.5h30.617c22.469 0 40.746-18.281 40.746-40.75v-127.5c0-21.543-16.805-39.238-37.992-40.656zm-42.89-.094h-61.235V195.38c0-11.27 8.289-20.438 18.476-20.438h24.286c10.183 0 18.472 9.168 18.472 20.438zm15 0V195.38c0-19.54-15.02-35.438-33.477-35.438h-24.286c-18.457 0-33.472 15.899-33.472 35.438v32.363h-12.89V195.38c0-27.809 20.8-50.438 46.362-50.438h24.286c25.562 0 46.363 22.63 46.363 50.438v32.363zm0 0"/></svg>