<svg viewBox="0 0 512 512" xmlns="http://www.w3.org/2000/svg"><g fill-rule="evenodd"><path d="M336 289.992h81c11 0 20-9 20-20V50H235c0 22-18 40-40 40H75v179.992c0 10.992 9 20 20 20h81v-17.144l19.14 1.367a62.423 62.423 0 016.676-16.094l-14.507-12.574 24.246-24.246 12.57 14.508a62.506 62.506 0 0116.098-6.676l-1.368-19.137h34.29l-1.368 19.137a62.674 62.674 0 0116.094 6.676l12.574-14.504 24.246 24.242-14.507 12.574a62.506 62.506 0 016.675 16.098L336 272.852zm0 0" fill="#fbf7f6"/><path d="M75 90h120c22 0 40-18 40-40h201.996V30c0-11-9.008-20-20-20H95c-10.992 0-20 9.008-20 20zm0 0" fill="#ffc234"/><path d="M75 142.004v-40H50c-11 0-20 9-20 20v20zm361.996-40v40H482V122c0-11-9-20-20-20h-25.004zm0 0" fill="#cdd3e0"/><path d="M482 142.004h-45.004v127.988c0 11-9 20-20 20H336v17.145l-19.14-1.367a62.506 62.506 0 01-6.676 16.097l14.507 12.574-24.246 24.246-12.574-14.507a62.48 62.48 0 01-16.094 6.675l1.368 19.137h-34.29l1.368-19.137a62.379 62.379 0 01-16.098-6.68l-12.57 14.509-24.246-24.247 14.507-12.57a62.506 62.506 0 01-6.675-16.097L176 307.137v-17.145H95c-11 0-20-9.008-20-20V142.004H30V412h452zm0 0" fill="#99ebfb"/><path d="M324.691 245.547l-24.246-24.242-12.574 14.504a62.617 62.617 0 00-16.094-6.676l1.368-19.137h-34.29l1.368 19.137a62.48 62.48 0 00-16.094 6.676L211.555 221.3l-24.246 24.246 14.507 12.574a62.48 62.48 0 00-6.675 16.094L176 272.848v34.289l19.14-1.367a62.506 62.506 0 006.676 16.097l-14.507 12.57 24.246 24.247 12.574-14.508a62.286 62.286 0 0016.094 6.676l-1.368 19.14h34.29l-1.368-19.14a62.506 62.506 0 0016.098-6.676l12.57 14.508 24.246-24.243-14.507-12.574a62.506 62.506 0 006.675-16.097L336 307.137v-34.29l-19.14 1.368a62.48 62.48 0 00-6.676-16.094zM256 270.078c11 0 19.918 8.914 19.918 19.914S267 309.91 256 309.91s-19.914-8.918-19.914-19.918c-.004-11 8.914-19.914 19.914-19.914zm0 0" fill="#ff5d7f"/><path d="M482 412H30v40h166c0 5.5 4.5 10 10 10h100c5.5 0 10-4.5 10-10h166zm0 0" fill="#cdd3e0"/><path d="M275.918 289.992c0 11-8.918 19.918-19.918 19.918s-19.918-8.918-19.918-19.918S245 270.078 256 270.078s19.918 8.914 19.918 19.914zm0 0" fill="#fbf7f6"/><path d="M306 462H206c-5.5 0-10-4.5-10-10H10v30c0 11 9 20 20 20h452c11 0 20-9 20-20v-30H316c0 5.5-4.5 10-10 10zm0 0" fill="#8690af"/></g><path d="M502 442h-10V122.004c0-16.543-13.457-30-30-30h-15.004V30c0-16.543-13.457-30-30-30H200c-5.523 0-10 4.477-10 10s4.477 10 10 10h216.996c5.516 0 10 4.484 10 10v10H235c-5.523 0-10 4.477-10 10 0 16.543-13.457 30-29.996 30H85V30c0-5.516 4.488-10 10-10h15.004c5.523 0 10-4.477 10-10s-4.477-10-10-10H95C78.46 0 65 13.457 65 30v62.004H50c-16.543 0-30 13.457-30 30V442H10c-5.523 0-10 4.477-10 10v30c0 16.543 13.457 30 30 30h452c16.543 0 30-13.457 30-30v-30c0-5.523-4.477-10-10-10zM40 152.004h25v117.988c0 16.543 13.46 30 30 30h71v7.145a10.01 10.01 0 003.188 7.32 10.008 10.008 0 007.527 2.656l11.328-.812c.41 1.058.844 2.105 1.305 3.14l-8.586 7.442a10.007 10.007 0 00-3.446 7.199 10.02 10.02 0 002.922 7.43l24.246 24.242a9.97 9.97 0 007.43 2.926 10.014 10.014 0 007.2-3.446l7.44-8.586c1.036.461 2.083.895 3.137 1.305l-.808 11.328a10.003 10.003 0 009.977 10.715h34.285a9.995 9.995 0 009.973-10.715l-.81-11.332a64.756 64.756 0 003.141-1.3l7.442 8.585a10.007 10.007 0 007.199 3.446 9.997 9.997 0 007.43-2.922l24.242-24.246a10.003 10.003 0 002.926-7.43 10.014 10.014 0 00-3.446-7.2l-8.586-7.44a70.68 70.68 0 001.301-3.137l11.332.808a10.019 10.019 0 007.527-2.656 10.02 10.02 0 003.184-7.32v-7.145h71c16.54 0 30-13.457 30-30V152.004h25V402H40zm168.363 98.558l-6.39-5.539 9.058-9.054 5.54 6.39a9.998 9.998 0 0012.636 2.063 52.342 52.342 0 0113.52-5.606 9.998 9.998 0 007.468-10.394l-.601-8.43h12.808l-.601 8.43a10.002 10.002 0 007.469 10.394 52.585 52.585 0 0113.523 5.606 10 10 0 0012.637-2.063l5.539-6.39 9.058 9.054-6.394 5.54a10.003 10.003 0 00-2.067 12.636 52.435 52.435 0 015.61 13.524 9.992 9.992 0 0010.394 7.468l8.43-.601v12.808l-8.426-.601a10.009 10.009 0 00-10.398 7.473 52.57 52.57 0 01-5.606 13.52 9.998 9.998 0 002.067 12.636l6.39 5.539-9.058 9.055-5.54-6.391a10.003 10.003 0 00-12.636-2.067 52.49 52.49 0 01-13.52 5.61 10.002 10.002 0 00-7.472 10.394l.601 8.426h-12.804l.601-8.426a10.002 10.002 0 00-7.472-10.394 52.273 52.273 0 01-13.52-5.61 10.003 10.003 0 00-12.637 2.067l-5.539 6.39-9.058-9.058 6.39-5.535a10 10 0 002.067-12.637 52.572 52.572 0 01-5.61-13.523 9.993 9.993 0 00-10.39-7.47l-8.43.602V283.59l8.426.601a9.995 9.995 0 0010.394-7.472 52.66 52.66 0 015.61-13.52 10 10 0 00-2.067-12.637zM462 112.004c5.512 0 10 4.484 10 10v10h-25.004v-20zM195 100c24.145 0 44.352-17.207 48.996-40h183v209.992c0 5.516-4.484 10-10 10H346v-7.14a10.003 10.003 0 00-10.715-9.977l-11.328.809a70.744 70.744 0 00-1.305-3.137l8.586-7.442a9.986 9.986 0 003.446-7.203 9.976 9.976 0 00-2.922-7.425l-24.246-24.247a9.994 9.994 0 00-14.625.524l-7.442 8.586a72.901 72.901 0 00-3.14-1.305l.808-11.328a9.998 9.998 0 00-2.656-7.527 9.98 9.98 0 00-7.316-3.188h-34.29a9.986 9.986 0 00-7.316 3.188 9.983 9.983 0 00-2.656 7.527l.808 11.328c-1.054.41-2.101.844-3.14 1.305l-7.442-8.586a9.992 9.992 0 00-7.199-3.445 10.06 10.06 0 00-7.43 2.921l-24.242 24.247a9.976 9.976 0 00-2.922 7.425 10.011 10.011 0 003.442 7.203l8.586 7.442a75.7 75.7 0 00-1.301 3.137l-11.332-.809A9.998 9.998 0 00166 272.852v7.144H95c-5.512 0-10-4.488-10-10V100zM50 112.004h15v20H40v-10c0-5.516 4.488-10 10-10zM40 422h432v20H316c-5.523 0-10 4.477-10 10H206c0-5.523-4.477-10-10-10H40zm452 60c0 5.516-4.484 10-10 10H30c-5.516 0-10-4.484-10-10v-20h168.684c3.464 5.973 9.93 10 17.316 10h100c7.39 0 13.855-4.027 17.316-10H492zm0 0"/><path d="M155.004 60c5.523 0 10-4.477 10-10s-4.477-10-10-10H155c-5.523 0-10 4.477-10 10s4.48 10 10.004 10zm40.004 0c5.52 0 10-4.477 10-10s-4.48-10-10-10H195c-5.523 0-9.996 4.477-9.996 10s4.48 10 10.004 10zm-80.012-20C109.473 40 105 44.477 105 50s4.48 10 10.004 10c5.523 0 10-4.477 10-10s-4.477-10-10-10zM256 319.91c16.496 0 29.918-13.422 29.918-29.918S272.496 260.074 256 260.074s-29.914 13.422-29.914 29.918S239.504 319.91 256 319.91zm0-39.832c5.469 0 9.918 4.45 9.918 9.914 0 5.469-4.45 9.918-9.918 9.918s-9.914-4.45-9.914-9.918c-.004-5.465 4.445-9.914 9.914-9.914zm71.184-108.074h35.671l-2.93 2.93c-3.905 3.906-3.905 10.238 0 14.14 1.954 1.953 4.513 2.93 7.071 2.93s5.117-.977 7.07-2.93l20-20c3.907-3.902 3.907-10.234 0-14.14l-20-20c-3.906-3.907-10.234-3.907-14.144 0-3.902 3.906-3.902 10.238 0 14.14l2.93 2.93h-35.668c-5.524 0-10 4.476-10 10 0 5.523 4.48 10 10 10zm-189.25 17.07c1.953 1.953 4.511 2.93 7.07 2.93s5.117-.977 7.07-2.93c3.906-3.902 3.906-10.234 0-14.14l-2.93-2.93h35.672c5.524 0 10-4.477 10-10 0-5.524-4.476-10-10-10h-35.671l2.93-2.93c3.905-3.902 3.905-10.234 0-14.14s-10.235-3.907-14.141 0l-20 20c-3.907 3.906-3.907 10.238 0 14.14zm304.062 172.922h-44.992c-5.524 0-10 4.477-10 10 0 5.524 4.476 10 10 10h44.992c5.524 0 10-4.476 10-10 0-5.52-4.476-10-10-10zm-89.992 0H352c-5.523 0-10 4.477-10 10 0 5.524 4.484 10 10.004 10 5.523 0 10-4.476 10-10 0-5.52-4.477-10-10-10zM155.004 20c5.523 0 10-4.477 10-10s-4.477-10-10-10H155c-5.523 0-9.996 4.477-9.996 10-.004 5.523 4.476 10 10 10zm0 0"/></svg>