<svg viewBox="0 0 17 13" xmlns="http://www.w3.org/2000/svg" xmlns:xlink="http://www.w3.org/1999/xlink"><style>:root&gt;svg{display:none}:root&gt;svg:target{display:block}</style><svg fill="none" viewBox="0 0 17 10" id="arrow-bottom" xmlns="http://www.w3.org/2000/svg"><path d="M8.5 10a.694.694 0 01-.516-.232L.196 1.33A.84.84 0 01.214.232a.69.69 0 011.014-.02L8.5 8.091 15.772.212a.69.69 0 011.014.02.84.84 0 01.018 1.098L9.016 9.768A.694.694 0 018.5 10z" fill="#07a159"/></svg><svg fill="none" viewBox="0 0 13 13" id="arrow-up" xmlns="http://www.w3.org/2000/svg"><path d="M.224 12.36a.74.74 0 00.53.21.77.77 0 00.53-.21l9.33-9.34v8.06c0 .414.336.75.75.75a.74.74 0 00.76-.75V1.346a.749.749 0 00-.897-.898H1.494a.75.75 0 000 1.5h8.07l-9.34 9.34a.75.75 0 000 1.07z" fill="#fff"/></svg></svg>